<?xml version="1.0" standalone="no"?>
<!DOCTYPE svg PUBLIC "-//W3C//DTD SVG 20010904//EN"
 "http://www.w3.org/TR/2001/REC-SVG-20010904/DTD/svg10.dtd">
<svg version="1.0" xmlns="http://www.w3.org/2000/svg"
 width="768.000000pt" height="1152.000000pt" viewBox="0 0 768.000000 1152.000000"
 preserveAspectRatio="xMidYMid meet">

<g transform="translate(0.000000,1152.000000) scale(0.100000,-0.100000)"
fill="#000000" stroke="none">
<path d="M1 7833 c1 -2683 4 -3680 12 -3660 7 18 21 30 41 35 31 8 58 52 31
52 -8 0 -15 7 -15 16 0 8 4 13 9 10 12 -8 21 45 10 65 -10 20 2 32 52 48 20 6
51 22 69 36 18 13 36 22 41 20 4 -3 9 -1 11 4 1 6 14 11 28 13 14 2 30 6 35 9
16 10 66 21 127 28 69 9 86 -4 112 -82 13 -40 14 -57 5 -90 -6 -23 -14 -46
-19 -52 -4 -5 -10 -27 -13 -47 -6 -40 10 -68 39 -68 19 0 77 32 100 55 28 27
84 117 79 125 -3 4 -16 8 -31 7 -45 0 -56 43 -30 117 21 61 48 70 206 70 l135
1 12 -45 c6 -25 12 -38 12 -30 1 9 8 4 19 -12 9 -16 22 -28 28 -28 7 0 30 -21
52 -48 22 -26 70 -69 105 -97 63 -48 79 -70 91 -126 5 -22 0 -29 -33 -47 -21
-12 -57 -42 -81 -68 -51 -56 -50 -65 16 -199 46 -91 77 -134 110 -153 14 -8
10 -18 -27 -78 -65 -105 -101 -191 -175 -409 -43 -128 -75 -207 -88 -218 -12
-10 -22 -24 -22 -30 -2 -25 -26 -77 -36 -77 -5 0 -6 -5 -3 -10 3 -5 2 -10 -4
-10 -17 0 -24 22 -10 32 12 7 11 9 -1 7 -31 -3 -40 2 -40 20 0 14 -11 23 -37
32 -21 6 -46 17 -56 24 -15 11 -16 15 -4 27 16 15 4 64 -12 53 -5 -3 -13 0
-16 5 -4 6 -19 10 -33 9 -15 -2 -33 0 -40 4 -15 10 -15 8 -1 -32 10 -28 9 -34
-7 -46 -16 -11 -23 -11 -46 3 -39 23 -36 71 4 79 23 4 26 8 18 24 -13 23 -13
32 0 24 12 -7 13 15 2 30 -10 15 -38 12 -34 -3 1 -7 -7 -12 -17 -12 -11 0 -23
-4 -26 -10 -8 -13 -45 10 -46 30 0 10 -2 11 -6 3 -3 -10 -9 -9 -20 3 -13 13
-14 17 -3 24 7 4 10 13 6 19 -4 7 -1 9 7 5 19 -7 32 13 18 29 -5 7 -8 23 -4
35 4 16 1 22 -12 22 -14 0 -15 -3 -5 -15 7 -8 8 -15 4 -15 -5 0 -14 8 -21 18
-8 14 -20 18 -41 14 -23 -3 -34 1 -44 17 -7 12 -21 21 -30 21 -10 0 -18 4 -18
10 0 5 -7 7 -15 4 -8 -4 -15 -2 -15 4 0 5 -9 12 -19 15 -17 4 -18 10 -11 41 5
22 4 36 -2 36 -5 0 -7 4 -4 9 4 5 -14 17 -39 27 -25 9 -45 21 -45 27 0 5 -13
7 -31 3 -40 -8 -79 2 -79 21 0 8 -4 12 -9 9 -15 -9 -22 23 -9 43 14 22 54 50
43 29 -4 -7 0 -6 10 4 10 9 19 28 20 42 3 23 0 26 -26 26 -16 0 -29 5 -29 10
0 6 -9 10 -20 10 -14 0 -22 10 -28 33 -4 17 -12 30 -17 29 -4 -2 -11 1 -14 7
-4 6 -20 12 -37 13 -16 1 -37 8 -46 16 -17 14 -18 -77 -18 -1896 l0 -1912
3840 0 3840 0 0 724 0 723 -102 7 c-57 4 -107 11 -112 16 -5 5 -1 27 8 52 l18
43 -21 -19 c-17 -16 -21 -16 -21 -4 0 9 11 23 25 32 30 20 36 20 29 2 -10 -25
26 -26 92 -2 78 28 81 31 64 51 -7 9 -10 18 -7 22 4 3 -3 19 -15 35 l-21 30
24 -4 c13 -1 24 -8 24 -15 0 -6 3 -15 8 -19 4 -4 7 5 7 21 0 15 -8 34 -17 41
-17 13 -17 13 0 14 9 0 17 4 17 9 0 13 -37 24 -52 15 -7 -4 -10 -4 -6 1 4 4 3
14 -3 22 -8 9 -8 13 -1 13 6 0 13 -4 16 -9 7 -11 46 -21 46 -12 0 4 -17 17
-37 29 -22 12 -31 22 -21 22 9 0 19 -4 23 -10 9 -14 35 0 35 20 0 11 -16 24
-42 35 l-43 18 30 6 30 6 -32 23 c-19 13 -46 22 -69 22 -35 0 -36 1 -21 18 10
10 17 33 17 50 0 27 -6 34 -34 46 -29 12 -34 20 -40 58 -4 25 -4 52 0 61 3 9
2 17 -4 17 -5 0 -12 -6 -15 -14 -3 -8 -16 -20 -29 -27 l-23 -12 23 25 c27 30
28 56 1 115 -22 50 -21 60 9 44 16 -8 21 -6 31 12 7 13 22 27 34 32 14 7 22
19 22 35 0 31 -29 39 -56 14 -10 -9 -22 -14 -26 -11 -3 4 -14 0 -23 -8 -16
-15 -19 -10 -39 72 -18 78 -68 335 -116 598 -9 50 -25 120 -35 157 -20 71 -86
208 -101 208 -5 0 -9 9 -9 20 0 11 -6 20 -14 20 -12 0 -25 19 -26 35 0 8 -24
33 -30 32 -9 -3 -52 35 -96 84 -32 35 -45 61 -58 117 -13 50 -23 73 -36 77
-10 3 -25 16 -33 28 -17 26 -29 125 -16 129 19 6 22 218 5 307 -25 128 -23
133 21 88 l38 -38 -3 -99 c-2 -109 10 -138 27 -60 18 85 14 116 -23 173 l-35
52 -3 167 c-2 93 -6 168 -10 168 -5 0 -8 4 -8 9 0 15 40 0 49 -18 5 -9 12 -38
15 -66 4 -27 10 -61 13 -75 4 -20 2 -22 -6 -10 -6 8 -11 26 -12 40 0 14 -3 20
-6 13 -2 -7 2 -47 11 -90 8 -43 15 -106 15 -141 -1 -35 2 -66 5 -69 3 -4 6 12
6 33 0 74 8 77 161 70 74 -3 215 -8 314 -11 99 -3 206 -7 238 -10 l57 -5 0
1520 0 1520 -22 -5 c-31 -6 -54 -9 -348 -45 -140 -17 -262 -33 -270 -36 -11
-4 -9 -9 10 -19 l25 -14 -24 -1 c-15 0 -21 -5 -18 -13 5 -14 -8 -34 -37 -57
-16 -12 -18 -12 -11 -1 5 10 4 12 -3 7 -7 -4 -12 -3 -12 2 0 6 -7 12 -15 16
-20 7 -19 4 6 -25 11 -13 30 -35 42 -49 12 -14 40 -48 62 -75 21 -28 42 -52
45 -55 26 -24 191 -222 204 -245 l18 -30 -23 30 c-104 132 -481 530 -682 719
-157 148 -163 158 -92 172 35 6 112 -22 148 -54 28 -25 100 -123 94 -128 -3
-3 8 -32 25 -66 37 -76 48 -69 15 9 -14 32 -28 68 -32 80 -3 12 -17 37 -30 56
-13 20 -25 43 -27 54 -2 10 -10 17 -17 15 -8 -2 -10 4 -7 16 4 12 0 24 -11 33
-16 13 -17 12 -4 -4 11 -14 12 -20 2 -30 -7 -7 -12 -7 -11 -2 4 20 -1 30 -8
17 -7 -10 -15 -9 -41 4 -25 12 -50 15 -96 12 l-63 -6 -67 103 c-49 75 -84 116
-131 154 -77 61 -92 66 -39 11 36 -37 38 -41 25 -65 -7 -14 -17 -25 -22 -25
-5 0 -7 -4 -3 -9 3 -5 -1 -15 -8 -23 -8 -7 -12 -19 -9 -27 3 -8 0 -11 -7 -7
-6 4 -11 0 -11 -11 -1 -15 -2 -16 -10 -3 -9 16 -65 20 -88 6 -7 -4 -15 -1 -18
8 -7 18 -46 16 -52 -2 -3 -9 -9 -9 -24 -1 -13 7 -18 7 -14 1 3 -6 3 -12 -1
-15 -5 -2 -1 -2 7 0 13 3 13 2 0 -10 -8 -7 -20 -18 -25 -25 -8 -9 -11 -7 -11
7 0 11 4 17 8 15 4 -3 5 2 1 11 -4 12 -8 13 -13 5 -9 -15 -30 -4 -30 16 0 8
13 44 30 80 16 36 32 84 35 107 11 83 17 117 20 117 2 0 16 -5 32 -10 26 -10
27 -9 8 5 -11 9 -36 18 -57 22 -21 3 -38 10 -38 16 0 6 15 7 38 4 l37 -6 -32
20 c-18 12 -33 27 -33 35 0 8 -9 14 -19 14 -11 0 -23 5 -26 10 -3 6 -15 10
-26 10 -12 0 -23 10 -29 26 -10 24 -50 83 -77 112 -7 7 -13 17 -13 22 0 5 -7
16 -16 24 -17 18 -104 22 -104 6 0 -6 12 -33 26 -61 24 -47 24 -52 9 -75 -31
-47 -53 -22 -67 78 -6 48 -6 85 0 108 5 19 16 63 23 98 7 34 17 62 22 62 4 0
7 -8 5 -17 -2 -12 3 -18 17 -18 16 0 20 7 20 33 1 38 17 52 61 52 48 0 48 11
2 52 -38 33 -40 37 -20 38 12 0 22 -5 22 -11 0 -8 5 -7 16 2 10 8 12 15 5 17
-6 2 -11 8 -11 13 0 4 7 6 15 3 9 -4 15 0 15 10 0 9 -8 16 -19 16 -16 0 -31
18 -31 36 0 11 24 2 35 -13 17 -23 38 -8 25 18 -6 11 -15 17 -19 14 -5 -2 -14
2 -21 10 -17 20 -4 19 47 -6 49 -23 65 -19 39 10 -11 12 -25 16 -41 13 -21 -4
-25 -1 -25 19 1 21 2 22 11 6 6 -9 14 -15 19 -12 5 3 19 1 30 -5 17 -9 20 -8
20 12 0 16 -10 30 -30 41 -36 22 -56 55 -42 69 7 7 16 -1 28 -23 l18 -34 7 30
c4 17 7 24 8 18 0 -7 11 -13 24 -13 16 0 18 3 8 9 -11 7 -11 9 0 14 18 7 -25
43 -60 52 -14 4 -38 18 -54 31 l-30 25 29 -7 c16 -4 31 -11 32 -16 2 -4 10 -8
17 -8 11 0 12 6 3 31 -12 36 -6 46 15 24 14 -13 16 -13 20 3 3 14 6 12 17 -10
10 -21 16 -25 26 -17 10 8 12 2 9 -27 -2 -28 3 -42 18 -54 20 -17 18 -58 -2
-45 -17 10 -29 -28 -19 -63 6 -22 18 -36 36 -44 51 -20 67 -28 87 -43 20 -14
24 -12 68 30 27 25 53 45 58 45 6 0 7 4 4 10 -3 5 3 15 15 22 11 7 20 18 20
23 0 6 22 20 50 32 45 19 50 24 50 55 0 18 2 47 4 63 1 17 4 38 4 48 1 10 10
17 22 17 11 0 20 7 20 15 0 8 6 15 14 15 34 0 26 50 -28 177 -30 71 -64 164
-76 208 -12 44 -34 127 -50 185 -40 147 -51 229 -49 352 1 85 4 108 17 113 8
3 17 3 20 0 3 -3 2 -5 -3 -5 -4 0 -2 -7 5 -15 7 -9 10 -18 7 -21 -3 -4 2 -15
12 -25 9 -10 46 -108 80 -216 65 -204 113 -324 143 -357 10 -11 18 -26 18 -33
0 -7 7 -13 15 -13 9 0 20 -11 25 -25 5 -14 12 -25 15 -25 4 0 3 5 -1 12 -4 6
9 -1 29 -16 20 -16 37 -25 37 -21 0 3 12 -3 27 -15 l28 -21 9 20 c9 22 66 31
66 11 0 -6 4 -9 8 -8 5 2 19 -9 33 -24 13 -15 38 -29 54 -31 17 -2 44 -10 60
-17 17 -7 38 -12 48 -11 9 1 29 -7 43 -18 15 -12 33 -21 40 -21 8 0 14 -4 14
-10 0 -5 18 -15 40 -21 26 -8 45 -21 53 -37 6 -14 21 -30 32 -36 11 -6 24 -17
28 -24 5 -7 20 -17 33 -22 13 -5 25 -16 25 -25 1 -8 2 -20 3 -26 0 -7 8 -15
16 -18 20 -8 101 -62 119 -79 11 -11 32 -12 85 -7 l71 6 24 -31 c19 -26 22
-41 19 -91 l-3 -59 53 0 52 0 0 1285 0 1285 -3840 0 -3840 0 1 -3687z m7246
2748 c0 -11 -5 -18 -9 -15 -4 3 -5 11 -1 19 7 21 12 19 10 -4z m-4070 -559
c-10 -10 -17 -22 -17 -25 0 -11 41 -8 98 7 46 13 52 12 52 -1 0 -12 7 -14 28
-8 26 6 26 6 7 -9 -18 -14 -14 -15 63 -16 65 0 82 -3 82 -14 0 -8 -5 -18 -11
-22 -18 -11 11 -24 54 -24 33 0 38 -3 32 -19 -5 -15 3 -22 40 -36 25 -10 45
-23 45 -30 0 -7 24 -22 53 -35 28 -12 46 -24 40 -27 -21 -8 4 -43 30 -43 16 0
19 -3 8 -9 -10 -7 -4 -16 29 -37 36 -24 39 -29 24 -35 -16 -5 -12 -9 20 -23
21 -9 42 -16 46 -16 4 0 10 -7 14 -15 6 -18 36 -9 36 11 0 18 10 18 36 -1 19
-13 23 -12 44 10 23 25 47 35 35 15 -3 -5 1 -10 11 -10 13 0 15 -6 10 -32 -7
-42 5 -66 24 -43 7 8 19 15 27 15 10 0 8 -6 -7 -22 -22 -24 -27 -48 -9 -48 6
0 9 -7 5 -15 -9 -24 33 -55 76 -55 32 0 39 4 44 25 l6 25 107 -5 c58 -2 108
-5 111 -6 3 -1 16 -1 30 0 22 1 23 0 8 -12 -17 -14 -200 -18 -214 -4 -4 3 -15
-3 -26 -15 -12 -14 -15 -24 -8 -28 6 -4 8 -14 4 -23 -7 -20 21 -62 43 -62 9 0
18 -5 20 -11 2 -6 -17 -9 -54 -8 -43 2 -54 1 -40 -7 9 -6 26 -8 36 -4 11 3 22
1 26 -5 3 -5 1 -10 -6 -10 -10 0 -10 -3 -1 -12 19 -19 14 -26 -14 -20 -19 3
-25 1 -20 -7 4 -6 1 -11 -8 -11 -9 0 -16 -4 -16 -10 0 -5 -15 0 -34 11 -29 17
-38 18 -55 7 -29 -18 -26 -38 5 -38 39 0 14 -25 -28 -28 -32 -3 -51 -18 -42
-34 3 -5 -7 -6 -23 -3 -27 6 -27 6 -9 -9 17 -14 18 -16 3 -16 -21 0 -22 -10
-2 -36 16 -21 20 -54 7 -54 -5 0 -17 9 -27 20 -35 38 -55 21 -55 -48 0 -20 -5
-44 -10 -52 -8 -12 -10 -10 -10 8 0 26 -17 62 -29 62 -4 0 -17 -18 -29 -39
-29 -51 -56 -64 -31 -14 16 32 16 63 0 63 -3 0 -11 -10 -16 -22 -7 -15 -18
-23 -34 -22 -13 0 -35 -10 -49 -23 -37 -34 -48 -28 -17 9 24 29 25 33 11 44
-10 7 -14 18 -9 29 6 18 7 17 14 -1 5 -15 8 -10 13 21 14 85 28 145 33 145 4
0 15 -8 26 -17 12 -11 17 -12 12 -4 -7 12 3 13 56 9 35 -3 58 -4 52 -1 -25 9
-12 21 31 27 24 4 47 13 50 21 2 7 15 15 28 18 19 4 18 5 -7 6 -28 2 -29 3 -8
11 37 15 18 40 -31 40 -22 0 -36 4 -31 8 18 12 57 72 48 73 -4 1 -17 0 -29 0
-31 -3 -24 25 19 84 34 46 47 85 30 85 -5 0 -26 -5 -48 -11 -22 -6 -58 -13
-80 -15 -22 -2 -65 -6 -95 -9 -68 -6 -141 -6 -152 1 -5 3 -3 13 4 22 11 13 10
15 -4 9 -10 -4 -18 -2 -18 4 0 6 -6 9 -14 6 -8 -3 -18 4 -23 16 -9 20 -8 22
21 21 17 0 44 4 59 9 l29 9 -41 25 c-23 13 -41 29 -41 34 0 6 -3 8 -7 6 -5 -3
-19 0 -33 6 -14 5 -31 11 -38 13 -8 1 -17 6 -20 10 -4 4 16 4 43 1 49 -7 49
-6 20 8 -16 8 -43 19 -59 25 -17 6 -26 15 -23 24 8 20 -13 36 -48 36 -22 0
-32 5 -32 15 0 8 7 16 16 16 9 1 -2 5 -24 8 -24 4 -39 11 -37 19 1 8 -14 12
-48 12 -40 0 -48 3 -44 15 4 10 0 15 -14 15 -11 0 -25 7 -32 15 -7 8 -23 15
-36 15 -13 0 -24 4 -24 9 0 6 -8 10 -17 10 -10 0 -51 2 -90 5 -41 3 -73 1 -73
-4 0 -5 -6 -7 -14 -4 -7 3 -21 -6 -30 -20 -9 -15 -23 -26 -31 -26 -8 0 -15 -4
-15 -10 0 -5 -7 -10 -15 -10 -8 0 -15 -9 -15 -20 0 -11 -6 -19 -12 -17 -7 1
-12 -6 -12 -15 1 -10 -8 -19 -22 -22 -29 -8 -31 -22 -4 -31 11 -3 20 -11 20
-16 0 -5 12 -6 28 -3 22 5 25 4 15 -6 -11 -12 -42 -14 -156 -10 -21 1 -46 -5
-55 -13 -9 -7 -25 -17 -35 -20 -10 -4 -16 -11 -13 -16 3 -5 -9 -18 -28 -29
-25 -15 -35 -29 -41 -58 -6 -27 -10 -33 -13 -19 -2 11 -8 24 -12 28 -4 5 -2
21 6 35 8 15 12 34 9 42 -3 10 6 22 26 34 28 17 29 19 12 32 -12 9 -13 13 -5
14 7 0 11 4 7 9 -3 5 9 11 27 13 18 2 33 8 32 13 -1 6 6 15 15 21 13 10 13 14
2 28 -12 14 -10 16 20 17 19 1 45 4 59 8 l25 7 -23 8 c-28 9 -20 26 9 19 12
-3 24 -1 28 6 6 8 15 9 34 2 20 -8 27 -7 27 2 1 6 7 1 15 -13 l14 -25 2 35 c1
19 2 41 2 48 -1 6 8 12 18 12 11 0 19 7 19 15 0 24 18 17 22 -7 4 -32 20 -29
64 11 21 19 35 27 31 18 -5 -13 0 -15 24 -12 17 2 44 13 62 24 40 26 45 26 24
3z m1933 -103 c13 -48 18 -119 8 -119 -11 0 -10 -58 2 -65 12 -8 50 16 50 33
0 7 11 17 24 22 23 9 75 70 59 70 -4 0 7 10 25 22 29 18 36 19 58 8 20 -11 24
-21 24 -57 0 -30 5 -45 15 -49 9 -4 14 -13 13 -22 -2 -8 3 -17 10 -19 6 -3 12
2 12 11 0 20 5 20 35 0 14 -9 25 -13 25 -9 0 5 10 0 22 -11 12 -10 18 -13 14
-6 -10 17 11 42 35 42 13 0 19 -7 19 -24 0 -13 7 -29 16 -37 13 -11 13 -15 2
-24 -17 -14 -41 -56 -35 -62 9 -8 75 9 94 24 16 13 16 13 -5 3 -13 -7 -26 -10
-28 -7 -8 8 20 25 66 41 42 15 46 14 64 -4 17 -17 18 -21 5 -36 -11 -13 -11
-18 -1 -21 6 -3 12 -13 12 -23 0 -10 7 -21 16 -24 24 -9 -1 -35 -27 -29 -15 4
-17 8 -8 19 8 10 8 14 0 14 -14 0 -43 -70 -37 -87 8 -21 24 -15 40 15 l15 27
7 -33 c7 -36 12 -39 59 -44 46 -5 65 -21 70 -56 3 -28 1 -32 -15 -27 -10 3
-22 0 -26 -6 -5 -9 -2 -10 9 -6 10 3 17 2 17 -3 0 -5 23 -12 51 -16 55 -7 79
-24 79 -55 0 -19 -1 -19 -28 1 -21 16 -40 20 -68 18 l-39 -4 42 -20 c42 -19
57 -41 43 -64 -5 -8 -9 -5 -13 10 -3 12 -11 20 -19 19 -7 -1 -38 9 -68 23 -30
15 -68 30 -83 34 -34 8 -44 28 -25 46 17 16 62 22 52 7 -4 -8 0 -8 15 0 11 7
21 18 21 26 0 7 6 16 13 18 6 3 -4 6 -23 6 -19 1 -57 8 -85 16 -34 11 -51 12
-53 5 -3 -7 -8 -7 -18 1 -11 9 -17 9 -29 -1 -15 -12 -35 -6 -35 11 0 5 7 9 15
9 8 0 25 5 38 11 24 11 24 12 6 30 -10 10 -23 19 -28 19 -5 0 -11 6 -14 13 -3
8 -9 6 -20 -8 -13 -16 -17 -17 -31 -6 -13 11 -17 11 -22 -3 -3 -9 -10 -14 -14
-11 -19 12 -41 -8 -36 -31 7 -26 -11 -34 -20 -10 -3 8 -16 17 -30 20 -34 9
-30 24 7 21 17 -1 47 6 67 16 20 11 44 19 54 19 10 0 18 4 18 9 0 6 15 7 34 4
26 -4 38 0 55 18 11 12 21 30 21 38 0 9 -3 12 -8 6 -4 -5 -20 -11 -37 -11 -33
-1 -110 -17 -137 -29 -15 -6 -15 -2 -1 52 8 32 20 64 26 72 10 12 9 12 -10 0
-13 -8 -23 -19 -23 -26 0 -15 -36 -17 -45 -3 -4 6 -11 7 -17 4 -7 -4 -5 -10 6
-16 19 -11 21 -28 3 -28 -8 0 -19 -12 -26 -26 -6 -15 -14 -24 -17 -21 -3 3 0
15 6 27 16 30 9 33 -36 13 -46 -20 -66 -22 -76 -8 -14 18 -8 26 12 20 11 -3
20 -2 20 3 0 5 18 17 40 27 39 18 46 41 8 32 -14 -4 -16 -2 -9 6 14 18 -21 62
-43 54 -19 -7 -22 -43 -3 -50 6 -3 2 -6 -11 -6 -12 -1 -25 -8 -28 -16 -8 -20
-20 -19 -28 2 -4 10 -1 20 8 25 8 5 13 15 10 22 -3 9 3 17 15 21 13 4 21 15
21 29 0 12 5 27 11 33 15 15 4 43 -17 43 -9 0 -55 -39 -102 -87 -49 -51 -87
-83 -89 -75 -3 6 -12 12 -20 12 -9 0 -13 6 -9 15 3 8 1 15 -5 15 -6 0 -9 7 -5
15 3 8 0 14 -6 12 -5 -1 -12 6 -13 16 -2 9 3 17 11 17 17 0 18 21 2 40 -11 12
-10 12 4 2 21 -17 33 1 12 18 -11 10 -12 15 -3 20 6 5 8 16 4 29 -5 17 -12 20
-28 15 -23 -7 -54 -34 -39 -34 5 0 12 -11 14 -24 4 -19 1 -23 -11 -18 -13 5
-14 3 -5 -9 7 -8 15 -29 19 -48 10 -49 -14 -36 -43 22 -23 45 -42 61 -42 35 0
-10 -3 -9 -9 1 -11 18 -31 5 -31 -20 0 -11 7 -19 18 -19 10 0 13 -3 7 -8 -12
-8 -18 -52 -7 -52 12 0 6 -54 -6 -58 -7 -2 -16 8 -22 22 -16 42 -49 28 -53
-22 -1 -20 -7 -32 -16 -32 -11 0 -10 -5 4 -20 10 -11 16 -20 12 -20 -3 0 -12
-3 -21 -6 -12 -5 -16 0 -16 20 0 18 -6 26 -17 27 -11 0 -13 3 -6 6 33 13 -95
122 -134 115 -15 -3 -17 14 -3 23 17 11 84 8 88 -3 2 -7 7 -10 12 -7 4 3 13
-2 20 -10 7 -8 21 -15 31 -15 11 0 19 -4 19 -10 0 -14 57 -13 66 1 3 6 1 15
-6 19 -8 5 -9 10 -2 14 6 3 9 18 7 33 -4 37 4 53 25 53 10 0 26 7 35 17 13 12
19 13 25 4 13 -22 56 32 51 63 -10 54 64 22 79 -35z m1739 -88 c33 -24 56 -79
46 -111 -8 -26 -55 -50 -95 -50 -114 0 -179 134 -86 176 40 18 97 12 135 -15z
m-1874 -21 c3 -5 1 -10 -4 -10 -6 0 -11 5 -11 10 0 6 2 10 4 10 3 0 8 -4 11
-10z m-287 -102 c2 -29 7 -55 11 -58 4 -3 9 -12 9 -20 1 -8 3 -27 6 -42 4 -29
-8 -39 -17 -14 -6 15 -44 25 -136 32 -44 4 -61 3 -57 -5 4 -6 13 -11 20 -11 7
0 25 -11 40 -25 15 -14 31 -25 37 -25 5 0 9 -7 9 -15 0 -8 5 -15 12 -15 9 0 9
-3 0 -12 -8 -8 -15 -8 -24 0 -11 8 -17 7 -25 -7 -15 -24 -76 -17 -71 8 2 11
12 15 31 13 36 -4 37 25 1 38 -34 13 -114 13 -114 -1 0 -5 -5 -7 -11 -3 -7 4
-2 15 15 31 14 13 26 28 26 32 0 23 125 36 184 20 44 -12 59 -5 46 21 -6 11
-15 29 -20 40 -7 13 -7 20 0 20 5 0 10 5 10 11 0 5 -4 8 -9 5 -5 -3 -11 1 -14
8 -5 13 2 18 33 25 3 0 6 -23 8 -51z m-1698 24 c7 2 14 -2 16 -7 2 -6 -5 -11
-16 -12 -11 -1 -20 3 -20 8 0 6 -4 7 -10 4 -5 -3 -10 1 -10 11 0 13 3 14 14 5
8 -6 19 -10 26 -9z m2070 -2 c0 -5 -4 -10 -10 -10 -5 0 -10 5 -10 10 0 6 5 10
10 10 6 0 10 -4 10 -10z m-1990 -4 c0 -2 -7 -9 -15 -16 -13 -11 -14 -10 -9 4
5 14 24 23 24 12z m25 -36 c-3 -5 -11 -10 -16 -10 -6 0 -7 5 -4 10 3 6 11 10
16 10 6 0 7 -4 4 -10z m59 -9 c3 -4 16 -6 30 -4 25 5 44 -13 29 -28 -5 -5 -20
-2 -37 6 -15 8 -32 12 -37 9 -5 -3 -9 2 -9 10 0 17 15 22 24 7z m392 -26 c18
-13 18 -14 -4 -8 -12 3 -25 9 -28 14 -8 14 10 11 32 -6z m-296 -10 c0 -8 -4
-15 -10 -15 -5 0 -10 7 -10 15 0 8 5 15 10 15 6 0 10 -7 10 -15z m2340 6 c0
-6 -4 -13 -10 -16 -5 -3 -10 1 -10 9 0 9 5 16 10 16 6 0 10 -4 10 -9z m-676
-27 c3 -8 2 -12 -4 -9 -6 3 -10 10 -10 16 0 14 7 11 14 -7z m-1207 -20 c-3 -3
-12 -4 -19 -1 -8 3 -5 6 6 6 11 1 17 -2 13 -5z m1579 -21 c-10 -10 -19 5 -10
18 6 11 8 11 12 0 2 -7 1 -15 -2 -18z m134 -43 c0 -5 -4 -10 -10 -10 -5 0 -10
5 -10 10 0 6 5 10 10 10 6 0 10 -4 10 -10z m-961 -25 c6 -3 11 -1 11 4 0 6 5
11 10 11 16 0 12 -47 -5 -54 -8 -3 -15 -1 -15 4 0 15 -17 12 -34 -5 -13 -13
-15 -13 -18 7 -2 16 -11 24 -28 27 -23 3 -24 4 -5 12 21 8 67 5 84 -6z m626 5
c3 -5 1 -10 -4 -10 -6 0 -11 5 -11 10 0 6 2 10 4 10 3 0 8 -4 11 -10z m45 -20
c0 -5 -7 -10 -15 -10 -8 0 -15 5 -15 10 0 6 7 10 15 10 8 0 15 -4 15 -10z
m-254 -47 c-6 -15 -9 -15 -16 -3 -6 9 -5 17 3 22 16 10 21 2 13 -19z m39 9
c-3 -3 -11 0 -18 7 -9 10 -8 11 6 5 10 -3 15 -9 12 -12z m35 8 c0 -5 -4 -10
-10 -10 -5 0 -10 5 -10 10 0 6 5 10 10 10 6 0 10 -4 10 -10z m225 0 c-3 -5
-10 -10 -16 -10 -5 0 -9 5 -9 10 0 6 7 10 16 10 8 0 12 -4 9 -10z m45 -20 c8
-5 11 -10 5 -11 -5 0 -1 -4 10 -9 15 -6 16 -9 4 -9 -9 -1 -24 8 -34 19 -19 21
-11 27 15 10z m-255 -8 c-3 -3 0 -11 6 -19 17 -20 5 -16 -14 5 -15 16 -15 19
-2 19 8 0 13 -3 10 -5z m-655 -42 c0 -5 -2 -10 -4 -10 -3 0 -8 5 -11 10 -3 6
-1 10 4 10 6 0 11 -4 11 -10z m60 0 c0 -5 -2 -10 -4 -10 -3 0 -8 5 -11 10 -3
6 -1 10 4 10 6 0 11 -4 11 -10z m1195 -30 c3 -5 1 -10 -4 -10 -6 0 -11 5 -11
10 0 6 2 10 4 10 3 0 8 -4 11 -10z m-915 -28 c0 -10 -7 -19 -14 -19 -11 0 -13
5 -5 19 5 10 12 18 14 18 3 0 5 -8 5 -18z m50 -7 c0 -2 -7 -5 -15 -9 -9 -3
-15 0 -15 9 0 9 6 12 15 9 8 -4 15 -7 15 -9z m1010 5 c0 -5 -15 -10 -32 -10
-25 0 -29 3 -18 10 20 13 50 13 50 0z m-130 -20 c0 -11 -2 -20 -5 -20 -2 0 -9
9 -15 20 -9 16 -8 20 5 20 8 0 15 -9 15 -20z m-776 -6 c3 -8 2 -13 -3 -9 -5 3
-11 0 -13 -6 -2 -7 -10 -10 -17 -8 -11 4 -10 9 3 22 21 21 22 21 30 1z m-340
-15 c-3 -5 -10 -7 -15 -3 -5 3 -7 10 -3 15 3 5 10 7 15 3 5 -3 7 -10 3 -15z
m381 -10 c11 -17 -1 -21 -15 -4 -8 9 -8 15 -2 15 6 0 14 -5 17 -11z m933 -28
c3 -8 -1 -12 -9 -9 -7 2 -15 10 -17 17 -3 8 1 12 9 9 7 -2 15 -10 17 -17z m36
-16 c3 -8 1 -15 -3 -15 -5 0 -11 7 -15 15 -3 8 -1 15 3 15 5 0 11 -7 15 -15z
m-289 -45 c10 -11 15 -20 11 -20 -4 0 -16 9 -28 20 -12 11 -17 20 -11 20 5 0
18 -9 28 -20z m-280 -40 c3 -6 -1 -7 -9 -4 -18 7 -21 14 -7 14 6 0 13 -4 16
-10z m-2151 -9 c4 -5 -2 -7 -12 -4 -23 6 -77 -38 -99 -80 -15 -30 -14 -84 2
-157 3 -14 -1 -10 -9 10 -31 74 -16 162 36 218 22 22 72 30 82 13z m1156 -6
c-7 -8 -30 -25 -51 -37 -22 -12 -39 -25 -39 -28 0 -4 -14 -5 -31 -2 -30 4 -29
5 33 43 66 40 112 53 88 24z m110 -5 c0 -5 -2 -10 -4 -10 -3 0 -8 5 -11 10 -3
6 -1 10 4 10 6 0 11 -4 11 -10z m-255 -10 c3 -5 1 -10 -4 -10 -6 0 -11 5 -11
10 0 6 2 10 4 10 3 0 8 -4 11 -10z m195 -25 c0 -9 -9 -15 -22 -15 -22 1 -23 1
-4 15 25 19 26 19 26 0z m-105 -45 c3 -5 2 -10 -4 -10 -5 0 -13 5 -16 10 -3 6
-2 10 4 10 5 0 13 -4 16 -10z m145 -26 c0 -25 -44 -98 -74 -123 -30 -25 -18
28 14 68 17 20 35 42 41 49 5 7 7 17 4 22 -3 6 -1 10 4 10 6 0 11 -12 11 -26z
m-80 1 c23 -13 23 -14 4 -15 -11 0 -29 7 -40 15 -26 19 1 20 36 0z m120 0 c-7
-8 -17 -15 -23 -15 -6 0 -2 7 9 15 25 19 30 19 14 0z m64 -98 c-3 -8 -16 -17
-28 -19 l-23 -5 20 35 c16 27 22 31 29 19 4 -8 5 -22 2 -30z m43 11 c-3 -8 -6
-5 -6 6 -1 11 2 17 5 13 3 -3 4 -12 1 -19z m-5 -45 c6 -16 10 -37 9 -48 -1
-27 19 -65 35 -65 10 0 12 10 9 33 l-5 32 12 -30 c7 -16 23 -49 36 -72 35 -67
24 -160 -28 -234 -30 -41 -23 -71 19 -85 37 -12 56 -37 47 -60 -4 -10 -13 -13
-26 -9 -27 9 -102 -4 -94 -16 3 -5 -1 -9 -8 -9 -13 0 -45 -27 -193 -163 -67
-63 -133 -120 -206 -181 -19 -15 -58 -44 -87 -63 -49 -32 -56 -34 -83 -23 -16
7 -29 16 -29 20 0 5 -8 16 -17 26 -18 18 -19 77 -1 123 5 14 9 27 9 28 0 1 11
29 24 62 30 77 60 117 160 216 71 70 81 85 82 117 1 27 11 49 37 80 47 57 76
115 76 154 0 44 25 62 88 63 28 0 63 7 75 16 13 8 28 12 32 8 5 -5 4 -1 -3 8
-6 9 -9 19 -5 22 3 4 1 7 -5 7 -6 0 -14 9 -17 20 -4 11 -11 17 -17 14 -6 -4
-8 -2 -5 4 4 5 15 8 26 5 11 -3 21 2 24 11 9 23 16 20 29 -11z m-1691 -52 c-6
-11 -11 -28 -11 -38 0 -22 -95 -127 -108 -119 -5 3 -32 6 -61 7 -36 2 -56 -3
-70 -15 -18 -16 -20 -15 -41 19 -12 19 -31 40 -42 46 -15 8 -19 8 -13 -1 4 -7
-1 -13 -14 -17 -12 -3 -21 -12 -21 -20 0 -11 -10 -8 -36 12 -31 24 -34 25 -25
7 15 -28 7 -31 -85 -37 -72 -4 -83 -7 -138 -46 l-59 -42 -21 24 c-12 13 -32
33 -46 44 -14 12 -9 2 13 -23 20 -23 37 -50 37 -60 -1 -16 -1 -16 -14 1 -7 9
-17 17 -21 17 -5 0 -6 -3 -2 -6 7 -8 -94 -132 -155 -191 -49 -47 -179 -133
-201 -133 -8 0 -17 -6 -20 -12 -2 -7 -23 -19 -47 -26 -38 -12 -49 -18 -83 -48
-7 -6 -24 -13 -37 -16 -14 -3 -34 -9 -44 -13 -14 -6 -17 -5 -12 3 5 8 0 12
-13 12 -23 0 -24 1 -15 24 3 9 16 16 28 16 13 0 26 3 30 8 4 4 11 7 15 7 5 0
21 14 37 31 16 17 35 29 42 27 6 -3 12 0 12 6 0 6 6 11 13 11 8 0 29 8 48 17
19 10 45 19 59 21 14 2 41 13 60 24 53 33 196 154 220 188 20 28 20 31 4 37
-21 8 -464 -67 -632 -107 -67 -17 -137 -37 -155 -47 l-32 -16 30 -13 c19 -9
64 -13 122 -11 50 1 94 -1 97 -4 16 -16 -11 -40 -57 -53 -64 -18 -165 -36
-200 -36 -43 0 -41 -18 9 -78 l47 -57 -74 70 c-40 39 -64 59 -53 45 48 -59 48
-57 1 -57 -28 0 -52 7 -72 22 -16 12 -48 31 -69 42 l-40 20 95 55 c138 81 289
158 289 148 0 -9 30 -6 160 17 91 16 296 90 344 125 25 18 38 20 104 15 54 -4
84 -12 106 -27 25 -17 23 -14 -7 14 -46 41 -103 56 -215 56 -81 0 -194 -25
-251 -54 -18 -10 -30 -13 -26 -7 10 17 64 42 96 46 54 7 151 38 155 50 3 6 20
9 42 7 28 -2 33 -1 22 7 -8 6 -31 11 -50 12 -78 3 114 41 220 44 122 3 270 19
320 34 45 14 136 14 161 1 21 -12 26 -46 7 -53 -10 -4 -10 -6 0 -6 7 -1 35 22
62 51 28 29 50 46 50 38 1 -21 69 -70 97 -70 27 0 132 65 134 83 1 7 4 2 6
-10 2 -12 -1 -31 -6 -42z m-2173 27 c7 -7 12 -33 12 -59 0 -80 -34 -106 -162
-124 -41 -5 -48 -3 -62 17 -31 43 -13 103 44 152 27 22 41 26 94 26 35 0 67
-5 74 -12z m3147 1 c22 -6 54 -27 73 -47 18 -19 45 -36 59 -38 36 -4 54 -25
60 -71 6 -49 -21 -85 -57 -76 -14 4 -30 -3 -48 -20 -34 -32 -78 -53 -125 -62
-30 -6 -43 -17 -72 -61 -40 -61 -52 -69 -113 -79 -35 -6 -48 -14 -69 -47 -15
-22 -43 -47 -62 -56 -23 -11 -42 -30 -53 -54 -23 -48 -41 -59 -26 -16 14 41
46 78 69 78 22 0 79 65 79 89 0 10 9 21 20 24 13 3 20 14 20 29 0 31 9 41 45
53 22 8 31 18 33 38 3 23 7 27 23 22 24 -8 75 11 83 31 3 7 -4 48 -14 90 -20
78 -25 139 -14 168 7 19 34 20 89 5z m-160 -66 c-5 -10 -18 -53 -29 -96 -12
-43 -25 -77 -31 -75 -5 2 -9 5 -9 8 1 3 5 32 9 65 10 94 15 108 32 94 11 -10
15 -8 20 10 3 12 8 20 11 17 2 -3 1 -13 -3 -23z m-515 -28 c9 -11 10 -19 2
-27 -13 -13 -36 6 -44 39 -5 19 -3 21 11 13 10 -5 24 -16 31 -25z m-714 -126
c8 -17 11 -28 5 -25 -14 9 -14 11 4 -48 17 -57 18 -66 6 -66 -5 0 -16 16 -26
36 -9 20 -18 34 -20 32 -2 -2 1 -27 6 -56 6 -29 9 -70 7 -90 l-3 -37 -30 44
c-33 49 -119 112 -177 132 -46 15 -48 29 -7 63 32 28 50 34 114 39 102 9 104
9 121 -24z m2423 9 c0 -7 -9 -26 -20 -43 -21 -33 -20 -31 -41 -95 -8 -25 -21
-45 -28 -45 -31 0 -53 172 -24 182 6 2 15 -11 20 -29 12 -41 35 -43 45 -4 10
37 50 65 48 34z m-1779 -308 c-8 -5 -19 -10 -25 -10 -5 0 -3 5 5 10 8 5 20 10
25 10 6 0 3 -5 -5 -10z m-47 -21 c-8 -8 -7 -18 2 -37 8 -15 16 -47 20 -72 5
-37 2 -54 -20 -94 l-26 -49 16 -68 c9 -36 15 -80 13 -95 -3 -24 -8 -15 -26 45
-13 40 -25 71 -28 68 -2 -2 0 -16 6 -31 17 -45 12 -66 -17 -78 -16 -7 -30 -13
-32 -15 -2 -1 -6 -17 -10 -35 -5 -24 -9 -2 -14 78 -5 72 -13 123 -24 145 -9
18 -19 57 -21 86 -3 35 -9 53 -18 53 -21 0 -44 -41 -44 -80 0 -54 -14 -68 -35
-36 -17 26 -17 27 16 71 19 24 41 47 51 50 9 3 56 28 105 55 91 51 105 58 86
39z m1651 -24 c15 -23 15 -24 -5 -17 -11 5 -20 11 -20 15 1 4 1 12 1 17 0 16
6 12 24 -15z m-3894 -13 c14 -11 23 -30 24 -49 1 -34 2 -34 80 14 50 32 77 25
117 -29 45 -63 38 -78 -46 -99 -101 -25 -115 -32 -170 -82 l-50 -45 40 -17
c59 -25 101 -70 152 -165 70 -131 85 -150 133 -175 25 -13 69 -44 97 -69 28
-25 53 -46 55 -46 2 0 2 17 0 38 -1 20 1 57 6 82 8 44 8 45 22 20 17 -32 29
-148 16 -153 -19 -7 35 -57 169 -157 72 -53 160 -124 197 -158 74 -67 83 -71
293 -116 183 -39 191 -43 265 -107 38 -32 72 -63 75 -69 9 -14 25 -12 20 3 -3
6 -1 26 4 42 8 27 9 25 10 -22 1 -34 8 -64 21 -85 32 -53 23 -63 -17 -20 -21
21 -73 65 -115 96 -74 54 -119 69 -133 46 -9 -14 28 -88 71 -144 19 -25 31
-46 27 -46 -4 1 -26 24 -48 52 -70 88 -70 88 -131 88 -47 0 -57 -3 -61 -20 -7
-27 -34 -25 -67 3 -15 13 -51 31 -79 41 -96 31 -141 58 -149 91 -5 20 -25 44
-60 70 -29 22 -87 72 -129 110 -70 66 -110 97 -299 236 -81 60 -171 146 -235
224 -80 98 -179 195 -209 205 -17 5 -62 14 -101 20 -38 5 -79 12 -91 16 -28 7
-78 -35 -110 -95 -13 -25 -22 -35 -18 -21 15 58 130 182 243 265 l54 39 -28 8
c-35 9 -45 23 -45 66 0 92 133 168 200 114z m3952 -60 c-7 -2 -12 -10 -12 -18
0 -17 -59 -94 -72 -94 -4 0 13 32 39 71 26 39 49 65 52 58 2 -7 -1 -15 -7 -17z
m31 -71 c21 -11 27 -21 27 -48 0 -22 7 -37 20 -45 11 -7 20 -16 20 -21 0 -4
-9 -3 -20 3 -11 6 -20 8 -20 4 0 -3 -7 -1 -15 6 -8 6 -19 9 -25 5 -5 -3 -10 1
-10 9 0 25 -13 19 -54 -26 -38 -40 -39 -41 -47 -20 -5 13 -4 34 2 50 10 28 79
105 89 99 3 -1 17 -9 33 -16z m1277 -13 c0 -7 -16 -58 -36 -113 -20 -55 -40
-117 -46 -137 -6 -21 -15 -38 -20 -38 -5 0 -7 -4 -4 -9 3 -5 -1 -14 -9 -21
-12 -10 -13 -7 -5 20 5 18 9 35 8 39 -1 3 4 25 11 49 6 23 9 48 5 54 -4 7 -3
8 4 4 12 -7 17 11 13 43 -2 7 2 10 7 7 6 -3 13 1 16 10 3 8 2 12 -4 9 -12 -7
-12 -3 -4 19 3 9 10 14 14 11 5 -3 14 11 20 30 11 34 30 48 30 23z m-3179
-221 c4 -111 10 -211 14 -222 4 -14 2 -12 -9 5 -10 16 -15 50 -16 98 0 86 -15
88 -26 4 l-8 -57 -6 40 c-5 33 -7 23 -14 -53 -8 -89 -19 -108 -29 -52 -3 17
-5 13 -6 -15 -1 -22 -6 -47 -11 -55 -7 -10 -10 33 -10 130 -1 95 -5 155 -14
175 l-13 30 -16 -30 c-20 -36 -20 -34 -3 30 11 40 17 49 33 47 23 -3 100 77
109 114 4 14 9 22 12 19 3 -3 9 -96 13 -208z m2454 -54 c49 -27 128 -42 176
-32 24 4 49 8 54 8 20 -2 -71 -27 -97 -28 -29 -1 -31 -7 -30 -73 0 -22 -4 -28
-19 -28 -41 0 -111 52 -102 76 3 8 -9 39 -27 71 -30 53 -31 56 -9 40 13 -9 38
-24 54 -34z m315 12 c0 -6 -56 -35 -67 -35 -4 1 8 9 27 20 39 22 40 22 40 15z
m-2977 -65 c-3 -12 -8 -19 -11 -16 -5 6 5 36 12 36 2 0 2 -9 -1 -20z m3557 -1
c0 -6 -4 -7 -10 -4 -5 3 -10 11 -10 16 0 6 5 7 10 4 6 -3 10 -11 10 -16z
m-220 -4 c7 -8 8 -15 2 -15 -5 0 -15 7 -22 15 -7 8 -8 15 -2 15 5 0 15 -7 22
-15z m-3083 -42 c-3 -10 -5 -2 -5 17 0 19 2 27 5 18 2 -10 2 -26 0 -35z m3077
18 c16 -17 16 -19 0 -25 -11 -4 -24 0 -33 10 -15 15 -14 15 9 4 l25 -13 -19
22 c-11 11 -15 21 -9 21 5 0 18 -8 27 -19z m-1502 -161 c-6 -36 -14 -99 -18
-140 -4 -46 -20 -112 -40 -169 -19 -51 -34 -105 -34 -120 -1 -14 -7 -37 -14
-50 -12 -22 -13 -22 -20 -5 -4 11 -10 60 -13 109 l-6 90 -14 -50 c-8 -31 -10
-72 -7 -107 5 -47 4 -58 -8 -58 -30 0 -38 24 -38 109 0 59 -3 81 -10 71 -16
-25 -11 -113 10 -175 26 -75 26 -89 1 -73 -15 9 -22 8 -36 -5 -20 -21 -29 -21
-45 -2 -7 8 -16 13 -20 10 -4 -3 -15 6 -23 19 -18 26 -7 46 26 46 14 0 17 5
13 16 -4 9 0 22 8 28 8 6 31 60 51 120 33 100 78 184 107 202 11 7 7 -62 -8
-126 -4 -20 -3 -22 5 -9 18 28 58 162 66 219 4 36 18 71 38 102 38 55 44 44
29 -52z m-1628 8 c9 -12 13 -24 9 -27 -3 -3 -8 0 -10 7 -3 6 -11 12 -19 12
-11 0 -10 -5 6 -22 23 -26 18 -38 -7 -16 -15 14 -20 14 -30 2 -16 -17 -17 -38
-2 -28 9 5 10 -1 5 -22 -5 -21 -4 -25 4 -14 11 17 11 17 16 -25 3 -29 2 -29
-13 -10 -15 19 -15 19 -8 -5 3 -14 8 -38 9 -54 l3 -30 -22 26 -22 25 -9 -37
c-8 -28 -7 -42 4 -58 10 -15 11 -22 3 -22 -6 0 -15 9 -19 19 -4 11 -10 20 -14
20 -5 1 -7 4 -5 9 1 4 5 6 10 5 4 -2 7 7 7 20 0 18 -2 19 -10 7 -15 -23 -12
-6 16 93 39 140 65 173 98 125z m135 -283 c1 -61 6 -91 21 -120 13 -25 20 -55
18 -78 -2 -35 1 -40 29 -52 89 -38 91 -164 4 -222 -37 -25 -109 -31 -155 -13
-33 12 -37 5 -39 -77 l-2 -68 80 -77 c44 -42 118 -108 165 -147 75 -63 89 -70
115 -65 36 8 129 53 133 65 2 5 9 9 17 9 15 0 154 89 213 137 l43 35 -34 33
c-38 37 -50 82 -37 139 25 112 123 176 222 145 36 -12 47 -22 66 -61 l23 -46
67 46 c37 25 85 61 106 79 38 32 40 32 59 15 24 -21 52 -83 61 -134 6 -30 4
-38 -9 -39 -60 -5 -110 -37 -260 -162 -115 -96 -256 -183 -500 -306 l-110 -56
-8 -47 -9 -46 -91 44 c-50 24 -99 44 -109 44 -10 0 -36 9 -58 20 -22 11 -51
20 -66 20 -15 0 -32 7 -38 15 -9 13 -43 16 -197 16 -103 1 -202 4 -220 8 -58
13 346 22 461 12 58 -6 123 -10 145 -10 35 0 37 2 17 10 -37 14 -204 117 -240
147 -18 15 -33 36 -32 47 0 11 0 57 0 101 1 150 15 259 37 281 25 25 39 103
21 114 -19 12 7 173 44 276 37 102 46 95 47 -32z m-2289 -45 c12 -6 28 -7 43
-1 20 8 36 2 91 -31 37 -23 63 -44 59 -47 -4 -3 -9 -15 -11 -25 -11 -59 -71
-96 -128 -78 -22 7 -46 7 -67 1 -84 -24 -137 1 -137 66 0 90 81 152 150 115z
m2993 -70 c52 -59 25 -144 -57 -175 -103 -40 -192 30 -165 129 26 93 156 120
222 46z m-285 7 c32 -30 44 -82 27 -123 -48 -115 -235 -86 -235 38 0 92 138
149 208 85z m-2445 -43 c12 -4 13 -10 2 -32 -6 -15 -27 -68 -45 -119 -19 -50
-38 -89 -43 -86 -6 4 -8 -3 -5 -15 7 -24 -21 -174 -33 -182 -13 -9 -28 -89
-18 -96 12 -7 11 -44 -1 -44 -5 0 -10 8 -10 18 0 10 -6 19 -14 19 -9 0 -18
-21 -26 -61 -7 -34 -18 -81 -25 -106 -8 -25 -17 -61 -20 -80 -10 -47 -57 -203
-51 -165 3 17 12 62 21 100 9 39 27 122 40 185 14 63 31 142 39 175 8 33 13
62 10 64 -2 2 -4 -1 -4 -7 0 -12 -18 -8 -57 10 -20 10 -19 12 28 59 28 27 56
49 63 49 7 0 25 36 40 83 26 74 89 237 93 237 1 0 8 -3 16 -6z m-115 -165 c-8
-6 -14 -3 -16 6 -3 13 -6 13 -19 0 -8 -9 -18 -14 -21 -11 -9 9 19 35 41 38 25
3 36 -20 15 -33z m3297 21 c3 -5 2 -10 -4 -10 -5 0 -13 5 -16 10 -3 6 -2 10 4
10 5 0 13 -4 16 -10z m2840 -86 c56 -10 95 -31 95 -53 0 -14 -10 -20 -47 -25
-27 -3 -63 -9 -81 -12 -41 -8 -65 12 -88 72 -25 65 -15 79 38 49 24 -13 61
-27 83 -31z m-5795 1 c0 -8 -8 -15 -17 -15 -10 0 -28 -3 -40 -6 -17 -5 -23 -2
-23 10 0 11 -5 14 -12 10 -7 -4 -8 -3 -4 4 11 18 96 15 96 -3z m3735 -29 c43
-102 62 -163 51 -163 -6 0 -44 -3 -83 -7 -64 -6 -73 -5 -73 9 0 17 80 195 87
195 2 0 10 -15 18 -34z m-2733 -72 c86 -90 96 -114 14 -34 -61 58 -95 100 -82
100 2 0 33 -30 68 -66z m-657 -45 c11 -17 -1 -21 -15 -4 -8 9 -8 15 -2 15 6 0
14 -5 17 -11z m5608 -19 c-4 -15 0 -20 16 -20 32 0 37 -27 10 -57 -35 -37
-121 -105 -127 -99 -3 3 14 30 37 59 45 59 50 74 24 79 -16 3 -14 7 9 31 32
32 38 34 31 7z m-113 -26 c-10 -43 -40 -81 -40 -50 0 16 36 86 45 86 1 0 -1
-16 -5 -36z m-5465 -2 c-3 -3 -11 0 -18 7 -9 10 -8 11 6 5 10 -3 15 -9 12 -12z
m5870 -48 c36 -49 44 -69 23 -62 -15 5 -78 85 -78 99 0 21 21 6 55 -37z
m-5845 15 c0 -6 -4 -7 -10 -4 -5 3 -10 11 -10 16 0 6 5 7 10 4 6 -3 10 -11 10
-16z m894 -121 c9 -21 16 -48 16 -60 0 -13 7 -36 15 -52 23 -43 19 -56 -12
-51 -16 3 -54 7 -86 9 -32 2 -60 6 -63 9 -5 4 67 191 89 232 10 18 12 17 18
-15 3 -19 14 -52 23 -72z m2550 53 c8 -14 35 -91 60 -170 l47 -144 -20 -48
c-25 -57 -29 -108 -7 -90 19 16 23 7 36 -71 5 -36 17 -82 26 -103 40 -97 -36
-172 -90 -87 -29 47 -52 66 -67 56 -8 -4 -9 -3 -5 4 5 8 -4 11 -26 10 -44 -1
-101 12 -111 26 -6 7 -7 4 -3 -7 3 -11 4 -23 1 -27 -9 -14 -34 0 -28 16 3 8 2
22 -2 32 -6 15 -8 14 -20 -8 -14 -24 -14 -24 -15 -3 0 12 -5 25 -12 29 -8 5
-6 10 8 15 16 6 16 8 2 8 -15 1 -35 35 -30 54 1 4 -3 7 -8 7 -7 0 -7 6 -2 18
6 11 5 30 -4 52 -7 19 -13 28 -13 20 -1 -12 -15 -15 -61 -16 -33 0 -60 3 -60
8 0 4 -12 8 -27 9 -16 0 -22 3 -15 6 17 7 15 23 -3 23 -8 0 -15 5 -15 11 0 6
-7 8 -16 5 -14 -5 -15 -4 -4 9 11 13 8 15 -21 14 -28 0 -31 -2 -14 -9 20 -8
20 -9 -1 -9 -13 -1 -25 8 -32 24 -8 17 -20 25 -37 25 -18 0 -25 5 -25 19 0 15
-7 18 -47 17 -31 -1 -47 -6 -46 -14 2 -7 -4 -9 -14 -5 -12 5 -14 3 -9 -8 4 -8
0 -5 -8 5 -9 11 -16 14 -16 8 0 -16 -30 -15 -31 1 0 6 -3 4 -7 -5 -7 -17 -9
-17 -35 1 l-28 18 26 17 c14 9 29 14 34 12 5 -3 15 2 22 11 12 14 12 16 0 8
-9 -5 -12 -4 -8 2 4 6 18 9 32 8 14 -2 25 1 25 7 0 13 31 37 48 38 7 0 10 -4
7 -10 -3 -5 -2 -10 3 -10 6 0 12 7 16 15 6 16 53 39 74 36 6 -1 12 5 12 14 0
8 5 15 10 15 6 0 10 -5 10 -11 0 -5 5 -7 10 -4 6 4 8 10 5 15 -3 5 20 14 50
21 30 7 55 17 55 22 0 5 15 7 34 4 37 -6 111 15 137 39 9 8 20 14 25 13 5 -1
23 4 39 11 39 17 91 27 138 27 31 1 40 -4 51 -26z m-4184 11 c0 -5 -7 -9 -15
-9 -8 0 -12 4 -9 9 3 4 9 8 15 8 5 0 9 -4 9 -8z m840 -28 c0 -2 -9 0 -20 6
-11 6 -20 13 -20 16 0 2 9 0 20 -6 11 -6 20 -13 20 -16z m530 -39 c-21 -25
-32 -17 -13 9 10 13 20 20 21 15 2 -5 -2 -16 -8 -24z m5186 -46 c30 -30 33
-30 42 -12 10 17 22 19 106 19 126 -1 139 -12 144 -124 3 -62 1 -81 -12 -91
-8 -7 -55 -18 -103 -24 l-88 -12 -7 -90 c-4 -49 -12 -110 -17 -135 -8 -39 -9
-31 -8 56 0 97 -16 181 -55 274 -28 66 -55 170 -45 170 6 0 25 -14 43 -31z
m-5286 6 c0 -8 -4 -15 -10 -15 -5 0 -7 7 -4 15 4 8 8 15 10 15 2 0 4 -7 4 -15z
m-1162 -33 c-6 -15 -20 -35 -30 -44 -10 -9 -19 -21 -20 -25 -2 -14 -22 -43
-30 -43 -10 0 -36 52 -42 84 -5 26 7 35 19 16 4 -6 15 -8 26 -5 11 4 19 2 19
-6 0 -18 30 10 41 39 5 13 13 21 19 17 6 -4 5 -16 -2 -33z m6007 18 c-20 -22
-31 -20 -22 5 4 8 14 15 23 15 16 0 16 -2 -1 -20z m-218 -72 c-2 -13 -4 -3 -4
22 0 25 2 35 4 23 2 -13 2 -33 0 -45z m20 -58 c12 0 14 -7 10 -29 -3 -15 -1
-33 4 -38 6 -6 6 -19 -1 -37 -5 -15 -7 -32 -4 -38 4 -7 2 -8 -4 -4 -19 11 -14
-2 17 -58 30 -52 93 -192 106 -235 l7 -24 -31 22 c-17 12 -44 35 -60 51 -16
17 -34 30 -40 30 -6 0 -11 4 -11 9 0 5 -33 29 -73 54 -40 25 -81 55 -92 67
-17 19 -15 19 26 -4 75 -41 86 -41 94 -5 5 22 10 28 18 20 20 -20 26 -12 16
21 -12 43 -12 71 1 63 15 -9 12 7 -5 29 -9 12 -15 42 -15 71 0 50 12 83 18 51
2 -9 10 -16 19 -16z m-2612 -79 c91 -92 93 -96 116 -179 15 -58 12 -81 -10
-67 -5 3 -22 -6 -37 -20 -15 -14 -36 -25 -46 -25 -16 0 -15 4 10 25 28 24 30
29 27 87 -3 51 -7 66 -27 81 -20 17 -23 17 -26 3 -5 -22 -22 -20 -22 2 0 10
-11 29 -24 41 -14 14 -22 30 -19 41 3 12 -4 24 -22 36 -26 17 -29 17 -56 1
-16 -9 -36 -14 -44 -11 -11 5 -15 -1 -15 -20 0 -29 -10 -32 -40 -14 -15 10
-32 8 -87 -9 -37 -12 -89 -25 -116 -29 -57 -8 -91 -43 -108 -110 -6 -24 -15
-47 -20 -50 -5 -3 -22 6 -38 19 -16 13 -50 33 -75 43 -25 11 -46 22 -46 25 0
13 79 41 130 47 30 3 64 11 75 18 12 8 86 32 165 55 80 23 165 52 190 65 25
13 55 23 66 24 14 0 49 -28 99 -79z m2661 44 c18 -44 18 -50 -2 -31 -8 9 -20
14 -25 11 -5 -4 -9 -1 -9 5 0 7 7 9 18 5 14 -5 15 -4 5 6 -13 13 -18 39 -7 39
3 0 12 -16 20 -35z m-4226 -95 c-19 -11 -48 -19 -65 -19 l-30 1 30 8 c17 4 41
12 55 18 41 18 47 13 10 -8z m-130 -30 c-20 -13 -103 -13 -95 0 3 6 30 10 58
10 37 0 48 -3 37 -10z m-1795 -100 c-9 -41 -17 -33 -9 9 4 17 9 30 11 27 3 -2
2 -19 -2 -36z m3490 -28 c3 -9 0 -20 -6 -26 -9 -8 -10 -8 -6 0 4 6 -3 20 -14
30 -12 10 -25 27 -31 37 -8 16 -5 16 21 -4 16 -12 33 -29 36 -37z m-2723 9
c35 -15 87 -39 116 -51 29 -13 51 -24 49 -26 -6 -7 -237 93 -237 101 0 8 8 6
72 -24z m983 19 c-3 -5 -11 -10 -16 -10 -6 0 -7 5 -4 10 3 6 11 10 16 10 6 0
7 -4 4 -10z m1602 -110 c43 -19 59 -47 51 -87 -5 -27 -24 -16 -20 12 4 32 -29
53 -106 67 -34 6 -59 15 -56 20 9 15 88 8 131 -12z m-1785 -75 c0 -22 -9 -62
-21 -88 -11 -27 -21 -62 -21 -78 0 -68 -69 -38 -134 58 -26 38 -59 84 -74 103
-15 19 -20 29 -11 22 10 -7 28 -15 40 -17 13 -3 45 -12 71 -22 41 -14 46 -19
37 -36 -9 -17 -8 -17 10 -7 26 13 43 41 67 104 16 45 18 47 27 25 5 -13 9 -42
9 -64z m2008 56 c-12 -24 -29 -35 -38 -26 -4 3 4 15 18 25 31 24 33 24 20 1z
m-1645 -31 c23 -104 -100 -222 -151 -145 -13 20 -14 31 -5 56 21 61 103 135
136 122 8 -2 17 -17 20 -33z m4862 8 c-3 -7 -5 -2 -5 12 0 14 2 19 5 13 2 -7
2 -19 0 -25z m-6033 -6 c-6 -4 -14 -14 -17 -22 -4 -10 -6 -8 -6 8 -1 15 5 22
17 22 10 0 13 -3 6 -8z m3506 -3 c0 -15 -18 -19 -23 -6 -3 8 1 14 9 14 8 0 14
-4 14 -8z m-3184 -65 c18 -14 18 -14 -6 -3 -31 14 -36 19 -24 19 6 0 19 -7 30
-16z m3334 -71 c5 -46 6 -48 34 -45 30 3 66 -21 66 -45 0 -7 -9 -13 -20 -13
-17 0 -18 -4 -10 -25 11 -30 7 -31 -28 -6 -43 30 -110 61 -131 61 -28 0 -32
12 -16 44 8 16 13 32 10 36 -3 5 4 6 15 3 12 -3 20 0 20 6 0 7 4 10 8 7 4 -2
14 0 22 6 12 8 12 9 -2 4 -19 -6 -22 2 -12 29 11 29 37 -9 44 -62z m-4479 -48
c-5 -22 -9 -30 -10 -18 -1 12 -5 25 -11 28 -16 10 -12 37 8 51 14 11 17 10 20
-4 1 -9 -1 -35 -7 -57z m1109 10 c14 -15 57 -49 95 -75 88 -60 115 -88 56 -59
-22 10 -47 19 -56 19 -9 0 -14 4 -11 8 3 5 -10 16 -29 25 -19 9 -35 23 -35 32
0 11 -13 15 -52 16 -34 1 -42 4 -23 6 48 7 54 21 20 50 -16 13 -21 20 -10 15
11 -6 31 -22 45 -37z m1393 29 c53 -18 77 -45 77 -86 0 -66 -71 -78 -142 -24
-65 50 -74 90 -25 114 30 15 37 14 90 -4z m-1222 -11 c13 -16 12 -17 -3 -4
-10 7 -18 15 -18 17 0 8 8 3 21 -13z m4894 -3 c3 -5 -3 -10 -14 -10 -12 0 -21
5 -21 10 0 6 6 10 14 10 8 0 18 -4 21 -10z m142 -18 c1 -10 18 -65 37 -123 25
-73 37 -132 42 -198 7 -93 7 -94 -12 -75 -11 10 -31 27 -44 36 -21 14 -22 17
-7 17 10 1 27 -4 38 -9 16 -9 19 -7 19 12 0 42 -24 71 -84 102 -49 26 -61 38
-73 71 -26 71 -25 71 -4 71 16 0 21 -7 21 -28 0 -30 2 -31 38 -22 26 7 28 30
6 62 -14 20 -14 29 -3 67 13 45 21 49 26 17z m-4874 -112 c10 -16 16 -30 14
-30 -2 0 -13 14 -25 30 -13 17 -19 30 -14 30 4 0 16 -13 25 -30z m2999 12 c50
-23 188 -139 188 -157 0 -25 -25 -18 -128 35 -76 39 -108 50 -145 50 -44 0
-62 -12 -34 -23 6 -3 0 -6 -16 -6 l-28 -1 17 33 c47 90 74 103 146 69z m-3264
-11 c2 -6 12 -11 23 -11 10 0 19 -6 19 -14 0 -20 79 -92 195 -179 105 -79 134
-112 116 -130 -7 -7 -13 -2 -20 16 -15 38 -211 191 -311 242 -106 54 -125 68
-115 85 9 15 88 7 93 -9z m411 -33 c51 -37 161 -173 161 -198 0 -31 71 -90
127 -106 54 -16 88 -47 99 -89 3 -13 29 -37 57 -56 76 -48 146 -109 160 -138
7 -15 22 -27 36 -29 14 -2 21 0 17 6 -4 6 -2 13 4 17 6 4 5 12 -5 21 -19 20
-19 44 1 72 28 40 94 25 112 -27 14 -39 -10 -104 -44 -120 -13 -6 -24 -15 -24
-20 0 -11 80 -85 109 -101 12 -6 20 -17 18 -23 -3 -7 8 -25 23 -42 15 -16 64
-79 109 -140 119 -160 111 -152 123 -130 6 10 18 26 26 36 9 10 17 31 19 46 4
30 36 63 61 63 22 0 82 -42 82 -57 0 -7 4 -13 9 -13 5 0 16 -19 23 -42 20 -59
39 -68 88 -40 48 27 83 28 124 3 25 -16 52 -20 134 -22 56 -1 102 -3 102 -5 0
-16 -87 -141 -131 -189 -104 -111 -127 -190 -103 -356 9 -59 19 -237 24 -409
7 -271 15 -382 51 -725 11 -112 28 -322 31 -397 4 -69 -8 -81 -79 -82 l-48 -1
1 -40 c0 -22 2 -58 4 -79 4 -28 1 -41 -9 -44 -10 -3 -12 0 -8 12 5 13 3 15
-11 7 -9 -5 -51 -16 -92 -25 -101 -22 -130 -35 -130 -57 0 -10 4 -21 10 -24
17 -11 114 -33 122 -29 5 3 8 2 8 -1 0 -8 -27 -35 -35 -35 -4 0 -33 -20 -65
-45 -32 -25 -63 -45 -69 -45 -6 0 -8 -6 -5 -14 3 -7 -6 -20 -20 -30 -21 -13
-24 -14 -20 -1 8 19 -15 19 -40 0 -12 -9 -31 -13 -48 -10 -16 3 -36 1 -45 -4
-13 -7 -7 -10 24 -16 54 -9 79 -35 61 -64 -7 -11 -19 -23 -28 -27 -30 -12
-143 -33 -151 -28 -19 11 -49 -8 -49 -30 0 -22 -3 -23 -72 -21 -43 1 -111 13
-166 29 -52 15 -103 24 -114 20 -13 -4 -18 -2 -14 5 4 5 23 13 44 16 20 3 52
13 70 20 40 18 43 45 4 45 -18 0 -38 11 -57 30 -15 16 -32 27 -37 24 -4 -3 -8
2 -8 12 0 12 -3 14 -13 6 -18 -15 -49 10 -41 33 6 14 3 16 -14 10 -19 -6 -22
-3 -22 26 0 26 -3 29 -14 20 -11 -9 -15 -6 -20 14 -4 14 -15 34 -26 45 -18 18
-20 18 -29 2 -16 -28 -26 -4 -26 62 l-1 63 49 22 c27 13 46 25 44 28 -3 2 -14
0 -25 -6 -12 -6 -31 -11 -44 -10 -18 0 -15 4 17 18 53 24 98 35 91 22 -4 -6 7
-8 28 -4 46 7 58 -14 22 -42 -15 -12 -53 -30 -84 -41 l-57 -19 38 -3 c51 -4
113 25 139 65 16 27 18 37 8 48 -34 40 -139 35 -217 -10 l-43 -26 0 23 c0 13
14 41 30 62 39 51 38 60 -6 51 -41 -7 -44 -15 35 88 24 31 47 57 52 57 5 0 15
12 22 28 6 15 20 33 29 40 10 7 18 18 18 23 0 6 65 81 144 167 80 86 182 203
228 258 46 56 133 161 193 234 278 334 316 387 336 475 11 51 -1 135 -20 135
-5 0 -12 -19 -17 -42 -7 -42 -8 -41 -14 32 -7 87 -18 110 -74 165 -64 62 -68
69 -56 99 7 20 6 26 -4 26 -8 0 -16 9 -19 20 -3 11 -13 20 -22 20 -10 0 -15 7
-13 19 2 11 -6 30 -18 43 -36 40 -104 157 -104 177 0 11 -9 25 -20 31 -23 12
-50 60 -50 90 0 20 -4 20 -300 20 -165 0 -300 4 -300 8 0 4 82 8 183 8 206 1
337 11 337 26 0 6 -34 48 -75 93 l-74 82 27 25 c15 14 34 28 42 31 40 15 -158
4 -344 -18 -115 -14 -238 -25 -275 -24 l-66 1 60 13 c33 7 82 23 108 34 27 12
59 21 72 21 64 0 125 22 160 58 19 20 35 41 35 46 0 9 -82 3 -112 -9 -11 -4
-18 -3 -18 4 0 19 51 62 103 86 27 13 44 26 38 29 -5 4 -42 4 -82 2 -53 -4
-80 -10 -98 -25 -70 -56 -113 -81 -169 -100 -34 -12 -69 -21 -78 -21 -32 0
-99 49 -178 129 -43 45 -83 81 -88 81 -5 0 -2 -7 6 -16 20 -20 39 -54 33 -60
-3 -3 -17 15 -33 40 -40 64 -69 77 -203 91 -74 8 -109 15 -98 20 30 13 168 -1
224 -23 39 -15 50 -16 46 -6 -5 14 13 20 19 7 2 -5 50 -53 107 -108 57 -55 98
-90 92 -78 -13 26 1 39 19 18 7 -8 26 -15 43 -15 66 0 124 65 151 170 12 46
12 51 -3 45 -9 -3 -44 -9 -78 -12 -87 -8 -172 12 -242 57 -32 21 -74 43 -94
49 -20 7 -37 15 -37 17 0 7 73 -7 85 -16 6 -4 19 -10 30 -12 11 -3 29 -9 39
-14 14 -5 17 -4 12 4 -4 7 -3 12 3 12 5 0 12 -6 14 -12 3 -7 6 -3 6 9 1 12 4
30 8 40 6 15 4 16 -9 5 -13 -10 -27 -1 -90 60 -41 40 -99 100 -129 133 -39 44
-28 36 41 -31 147 -141 157 -145 220 -87 48 42 41 53 -34 53 -43 0 -53 4 -82
36 -19 19 -34 40 -34 47 0 6 7 2 15 -9 14 -18 15 -15 13 37 -1 53 5 79 21 79
4 0 26 -14 50 -32z m4584 26 c3 -4 0 -13 -8 -21 -13 -12 -24 -13 -72 -3 -94
20 -96 29 -7 30 44 0 83 -3 87 -6z m-5014 -78 c26 -14 73 -52 104 -86 56 -60
104 -136 93 -148 -3 -3 -13 12 -22 34 -19 45 -148 175 -202 204 -20 10 -33 19
-29 20 4 0 29 -11 56 -24z m-64 -11 c33 -9 67 -23 75 -32 13 -14 13 -15 -1
-10 -9 3 -52 13 -97 23 -45 11 -82 22 -82 26 0 12 41 9 105 -7z m-185 -35 c0
-29 -33 -57 -81 -70 -60 -16 -75 -7 -42 26 16 16 29 22 31 16 4 -14 41 -15 61
-3 8 5 12 18 8 30 -3 14 0 21 9 21 8 0 14 -9 14 -20z m3197 -105 c-40 -35 -97
-61 -97 -45 0 5 15 17 33 26 17 9 45 28 61 41 44 37 46 16 3 -22z m2625 -18
l-4 -48 -24 28 c-31 36 -30 53 1 53 14 0 25 5 25 12 0 6 1 9 3 7 2 -2 2 -26
-1 -52z m-528 -56 c29 -32 13 -26 -69 27 -114 73 -116 75 -30 33 44 -21 89
-48 99 -60z m-6062 -2 c75 -85 216 -197 295 -234 40 -19 79 -29 135 -33 63 -4
78 -8 74 -19 -4 -8 -6 -25 -6 -38 l0 -23 -87 33 c-145 55 -184 74 -271 132
-46 30 -85 53 -88 51 -4 -4 46 -53 126 -122 35 -31 45 -36 116 -61 41 -14 60
-26 55 -33 -10 -16 -109 10 -166 44 -24 14 -52 25 -62 24 -10 -1 -20 -1 -23 0
-30 11 -48 7 -57 -12 -9 -20 -11 -18 -39 28 -37 59 -78 159 -99 240 -21 81
-20 94 9 94 18 0 42 -20 88 -71z m99 6 c38 -35 88 -74 111 -86 65 -33 148 -88
148 -97 0 -10 -87 10 -122 29 -71 37 -258 190 -258 211 0 4 12 8 26 8 19 0 47
-19 95 -65z m91 40 c54 -30 170 -55 298 -65 l95 -7 -89 -1 c-64 -2 -94 -6
-106 -17 -15 -13 -23 -13 -71 1 -67 20 -209 91 -209 104 0 17 36 11 82 -15z
m6275 -74 c97 -81 91 -67 129 -310 l6 -44 -27 21 c-15 12 -34 22 -41 22 -7 0
-19 9 -27 21 -8 11 -23 20 -34 19 -33 -4 -42 0 -48 20 -5 15 -15 20 -41 20
-50 0 -133 29 -147 51 -24 39 -87 15 -100 -36 -4 -16 -5 -16 -6 5 -1 41 33
102 95 169 100 108 152 117 241 42z m-5260 1 c17 -12 36 -36 43 -54 6 -18 16
-41 21 -50 15 -28 12 -28 -46 3 -30 16 -65 28 -77 28 l-23 -2 23 -4 c31 -6 27
-18 -7 -20 -21 -2 -32 3 -36 16 -3 10 -32 29 -64 43 -58 25 -60 28 -52 67 1 2
43 2 94 -1 75 -3 99 -8 124 -26z m4829 -4 c53 -40 119 -107 112 -114 -4 -4
-18 0 -31 9 -18 12 -27 13 -36 4 -15 -15 -14 -42 4 -57 21 -17 38 -86 30 -121
-9 -39 -29 -32 -33 12 -5 46 -19 59 -38 35 -18 -26 -18 -82 1 -137 9 -24 14
-52 12 -61 -3 -11 0 -15 9 -11 20 8 17 -15 -3 -25 -10 -5 -31 -12 -48 -16 -30
-7 -30 -7 -7 9 29 21 28 58 -3 122 l-25 50 35 53 c19 28 35 59 35 67 0 24 -30
68 -61 89 -16 10 -29 24 -29 30 0 19 30 84 38 84 5 0 22 -10 38 -22z m-2266
-44 c0 -10 -30 -44 -67 -78 -98 -88 -210 -206 -230 -243 -17 -32 -32 -40 -46
-27 -4 4 7 25 23 48 43 59 293 315 308 316 6 0 12 -7 12 -16z m-817 -118 c18
-7 43 -25 56 -39 25 -27 25 -40 3 -167 -15 -85 -28 -109 -67 -125 -35 -15
-129 -20 -183 -9 -54 11 -97 101 -109 229 -4 43 -1 53 19 72 52 48 209 70 281
39z m-1663 -72 c14 -6 37 -25 51 -41 39 -41 159 -275 224 -438 31 -77 79 -185
107 -240 100 -199 140 -335 120 -406 l-10 -34 -1 30 c-1 18 -12 41 -31 60 -21
22 -32 45 -37 80 -4 31 -27 88 -60 151 -29 55 -53 104 -53 107 0 4 12 8 28 8
19 1 21 3 7 6 -11 2 -29 6 -41 8 -22 5 -48 50 -39 66 4 5 -4 9 -15 9 -15 0
-20 5 -17 14 6 15 -124 231 -238 398 -65 94 -115 189 -115 217 0 32 63 35 120
5z m4963 -116 l-11 -43 -1 55 c-1 41 2 51 11 42 8 -8 8 -23 1 -54z m-166 10
c-3 -8 -6 -5 -6 6 -1 11 2 17 5 13 3 -3 4 -12 1 -19z m106 -89 c-9 -30 -28
-69 -42 -88 -14 -19 -29 -40 -33 -45 -5 -7 -11 -6 -20 3 -8 9 -9 11 -1 7 18
-10 61 53 84 123 26 76 36 75 12 0z m-5768 -14 c33 -9 83 -18 110 -21 28 -3
61 -7 75 -9 14 -2 42 -4 63 -4 25 -1 37 -6 37 -16 0 -8 -6 -12 -12 -10 -18 6
-138 15 -138 10 0 -4 110 -59 125 -62 5 -1 25 -6 43 -12 17 -5 32 -7 32 -5 0
3 6 -1 14 -8 8 -7 11 -17 8 -23 -3 -5 2 -4 11 4 12 9 17 10 17 2 0 -7 4 -9 10
-6 6 3 7 -1 4 -9 -3 -9 -9 -14 -14 -11 -4 2 -23 6 -42 9 -99 12 -342 113 -413
171 -34 27 -30 27 70 0z m-548 -41 c21 -32 8 -58 -31 -62 -33 -4 -56 13 -56
42 0 50 58 63 87 20z m3551 -27 c-24 -30 -53 -67 -66 -83 -20 -25 -21 -26 -11
-4 25 52 90 140 104 140 10 0 0 -19 -27 -53z m-2694 7 c3 -8 2 -12 -4 -9 -6 3
-10 10 -10 16 0 14 7 11 14 -7z m5366 -15 c-15 -26 -34 -33 -57 -20 -16 9 -16
10 5 11 13 0 30 7 38 15 21 21 27 19 14 -6z m-5783 -86 c18 -16 41 -75 104
-281 6 -19 1 -17 -27 14 -20 20 -42 46 -49 58 -11 17 -85 229 -85 243 0 5 31
-13 57 -34z m5777 -45 c19 -89 32 -196 21 -186 -4 4 -22 63 -40 132 -30 116
-31 126 -15 126 14 0 21 -15 34 -72z m-5251 27 c-3 -9 -8 -14 -10 -11 -3 3 -2
9 2 15 9 16 15 13 8 -4z m-315 -127 c12 -6 22 -16 22 -22 0 -10 51 -39 65 -37
3 1 14 -7 25 -16 11 -10 29 -26 39 -35 19 -16 61 -42 71 -43 7 0 84 -48 90
-55 3 -4 29 -15 57 -25 46 -16 59 -17 101 -6 70 17 101 0 69 -39 -11 -13 -26
-19 -64 -22 -7 -1 -13 -5 -13 -10 0 -4 -6 -8 -14 -8 -8 0 -17 -8 -20 -17 -6
-15 -8 -15 -16 -3 -8 12 -10 11 -10 -5 0 -17 -2 -17 -10 -5 -5 8 -10 10 -10 5
0 -6 -11 -12 -26 -13 -17 -1 -23 2 -19 11 4 6 0 3 -9 -7 -20 -24 -11 -39 15
-25 11 6 27 8 34 5 8 -3 17 -1 21 5 3 6 12 8 20 5 7 -3 16 -1 19 4 4 6 14 10
23 10 9 0 43 11 75 24 31 13 57 20 57 15 0 -5 -4 -9 -8 -9 -5 0 -17 -7 -28
-15 -18 -14 -17 -15 8 -5 20 7 37 5 64 -6 36 -15 36 -16 16 -30 -35 -24 -244
-116 -277 -121 -24 -4 -39 3 -82 39 -60 50 -71 72 -49 97 9 10 16 20 16 23 0
8 -43 3 -58 -6 -7 -4 -16 -5 -19 -2 -4 3 -1 6 5 6 7 0 12 5 12 11 0 6 -9 8
-22 3 -19 -6 -21 -5 -11 8 10 12 9 15 -5 15 -9 0 -23 -4 -30 -10 -9 -7 -11 -5
-5 8 5 14 3 17 -10 12 -11 -4 -17 -1 -17 9 0 9 -7 14 -17 12 -26 -4 -78 90
-113 203 -17 53 -30 100 -30 104 0 4 10 0 23 -9 12 -9 32 -21 45 -28z m4391
-255 c31 -60 49 -83 63 -83 28 0 78 28 78 44 0 22 35 47 56 39 24 -9 49 -33
35 -33 -6 0 -11 -8 -11 -18 0 -10 -11 -29 -24 -42 -28 -25 -43 -77 -28 -92 7
-7 23 7 50 41 l40 50 -5 93 c-3 66 -2 90 6 83 13 -13 140 -317 171 -410 19
-58 27 -69 56 -81 18 -8 57 -14 86 -14 l53 0 40 -97 c70 -172 124 -274 209
-398 107 -155 103 -147 141 -295 38 -146 82 -241 164 -355 94 -131 151 -242
256 -494 14 -35 35 -80 46 -100 24 -45 26 -93 3 -84 -8 3 -25 -4 -39 -17 -16
-15 -31 -21 -45 -17 -25 7 -50 -1 -50 -15 0 -5 9 -7 19 -3 13 4 27 -1 40 -14
28 -28 38 -26 56 9 9 17 22 30 30 30 15 0 20 -13 30 -77 4 -24 10 -45 14 -48
5 -2 9 -32 9 -65 1 -46 -2 -60 -14 -60 -8 0 -14 -5 -14 -11 0 -6 7 -8 16 -5
13 5 15 1 12 -19 -3 -14 -1 -25 3 -25 5 0 9 -5 9 -12 0 -9 -3 -9 -12 0 -15 15
-58 16 -58 2 0 -5 -4 -10 -10 -10 -16 0 -12 47 5 54 8 3 15 9 14 13 -4 22 3
33 21 33 30 0 24 19 -7 26 -16 3 -33 7 -38 9 -18 5 -55 -32 -49 -49 4 -11 -2
-19 -21 -26 -34 -13 -35 -13 -35 5 0 8 -7 15 -15 15 -8 0 -15 -7 -15 -15 0 -8
-4 -15 -10 -15 -12 0 -12 3 -4 24 3 9 12 16 20 16 19 0 90 68 80 77 -4 4 -10
3 -14 -3 -11 -16 -38 -24 -49 -13 -5 5 -26 0 -50 -12 -51 -25 -71 -18 -48 18
20 29 12 42 -15 25 -11 -7 -27 -12 -35 -12 -9 0 -13 -5 -10 -10 9 -14 -22 -60
-39 -60 -8 0 -17 -13 -21 -29 -3 -17 -14 -31 -26 -34 -19 -5 -27 -37 -9 -37 6
0 10 -7 10 -15 0 -8 -5 -15 -11 -15 -8 0 -8 -5 1 -15 7 -8 19 -15 27 -15 21 0
10 -24 -12 -29 -10 -2 -25 5 -32 15 -12 16 -13 16 -13 1 0 -9 -4 -17 -8 -17
-12 0 -41 32 -41 45 0 5 -5 11 -11 13 -8 3 -10 -3 -6 -16 6 -17 1 -21 -24 -27
-16 -4 -28 -10 -25 -15 3 -5 1 -11 -4 -14 -5 -3 -12 1 -15 10 -4 9 -5 18 -4
18 2 1 15 7 31 14 26 11 37 32 17 32 -5 0 -10 -4 -10 -9 0 -6 -9 -9 -19 -8
-14 1 -17 5 -11 13 6 6 7 13 4 17 -8 7 -37 -3 -46 -17 -5 -7 -8 -5 -8 5 0 8 5
20 12 27 9 9 4 12 -25 12 -28 0 -35 3 -31 15 4 8 10 12 15 9 5 -3 9 2 9 10 0
25 40 19 66 -9 15 -16 24 -20 27 -12 4 9 8 9 15 -2 15 -21 42 -6 35 19 -3 12
-11 19 -18 16 -14 -5 -39 9 -41 24 -3 23 -5 24 -19 7 -10 -15 -18 -17 -32 -8
-17 10 -17 10 3 11 11 0 31 11 44 25 l24 25 -25 18 c-27 19 -57 24 -65 10 -3
-5 -17 -14 -31 -19 l-25 -9 26 -25 c33 -31 25 -49 -20 -42 -29 5 -34 3 -43
-25 -14 -39 -14 -38 3 -38 8 0 18 -5 22 -12 5 -8 2 -9 -9 -5 -27 10 -28 -9 -2
-23 24 -13 24 -13 -23 -36 -26 -12 -39 -23 -29 -23 9 -1 17 -5 17 -11 0 -14
-11 -12 -34 5 -19 14 -18 15 5 24 13 5 20 10 15 10 -5 1 -3 8 5 17 11 14 9 16
-17 13 -16 -1 -40 -1 -53 -1 -23 2 -24 3 -6 22 10 11 26 20 35 20 24 0 38 20
35 50 -1 20 -8 26 -34 28 -21 2 -35 10 -38 21 -7 26 -112 48 -142 30 -27 -17
-26 -20 5 -50 20 -18 38 -24 77 -26 29 0 64 -2 80 -2 15 -1 27 -7 27 -14 0
-17 -37 -39 -45 -27 -12 19 -24 9 -27 -22 -2 -28 -8 -34 -30 -36 -26 -3 -42
-32 -18 -32 6 0 10 -8 10 -17 0 -13 -3 -14 -12 -5 -7 7 -23 12 -37 12 -13 0
-21 3 -18 7 4 3 -5 15 -20 25 -16 10 -22 18 -15 18 6 0 12 5 12 10 0 6 -9 10
-20 10 -11 0 -20 -4 -20 -10 0 -5 -4 -10 -10 -10 -5 0 -10 9 -10 19 0 24 -16
36 -23 17 -4 -10 -19 -12 -53 -9 -31 2 -50 -1 -55 -9 -4 -7 -11 -9 -14 -6 -4
4 2 17 14 29 18 20 23 21 51 9 17 -7 33 -10 36 -7 10 10 -36 67 -54 67 -25 0
-46 -16 -38 -29 5 -7 -3 -9 -24 -5 -27 6 -32 3 -42 -22 -13 -36 -51 -66 -72
-58 -23 9 -20 16 19 43 39 26 45 41 16 41 -11 0 -23 9 -26 20 -6 20 -25 28
-25 11 0 -5 -9 -11 -20 -14 -27 -7 -25 -25 3 -29 20 -3 20 -4 -10 -23 -18 -10
-33 -25 -33 -32 0 -9 -10 -11 -32 -7 -31 5 -32 4 -14 -10 10 -8 15 -19 12 -24
-3 -5 2 -19 11 -31 11 -16 18 -20 26 -12 16 16 24 14 30 -10 4 -16 2 -19 -10
-15 -9 4 -21 -1 -29 -11 -13 -17 -13 -17 -14 0 0 28 -65 44 -98 23 -13 -8 -29
20 -17 32 8 8 55 10 55 2 0 -3 9 -6 20 -6 25 0 17 8 -23 22 -35 12 -48 33 -20
35 16 1 16 2 1 6 -27 7 -21 18 10 20 33 1 87 21 79 29 -3 4 -27 7 -54 8 l-48
1 -2 79 c-2 87 -18 121 -47 96 -14 -10 -16 -9 -16 7 0 20 -37 44 -72 48 -20 2
-103 60 -195 136 -7 5 -13 26 -13 47 0 68 -19 157 -37 169 -13 10 -14 17 -5
37 10 23 9 24 -26 29 -20 2 -82 16 -137 31 -55 14 -111 26 -125 25 -20 0 -41
-21 -100 -94 -41 -52 -77 -95 -82 -95 -4 0 3 -11 15 -23 29 -32 108 -133 141
-181 23 -35 27 -64 6 -51 -4 3 -19 -6 -31 -20 -26 -26 -50 -35 -29 -10 9 10 9
15 1 15 -6 0 -11 -5 -11 -11 0 -5 -4 -7 -10 -4 -5 3 -7 0 -4 -8 3 -8 -1 -14
-10 -14 -8 0 -12 6 -9 14 3 7 -2 13 -11 13 -9 0 -19 0 -23 1 -4 0 -9 -5 -11
-13 -3 -10 -2 -10 6 1 6 8 12 9 16 3 3 -5 -1 -13 -9 -16 -9 -3 -18 1 -21 9 -5
13 -8 13 -21 0 -21 -21 -39 -19 -22 3 13 16 13 16 -7 0 -24 -21 -39 -24 -27
-6 4 7 -10 -1 -32 -19 -21 -18 -42 -30 -47 -27 -4 3 -8 1 -8 -5 0 -5 -13 -18
-29 -27 -16 -10 -35 -29 -41 -43 -7 -14 -15 -21 -17 -14 -2 7 -10 10 -16 8 -7
-3 -31 13 -54 34 -24 22 -45 36 -47 32 -3 -4 11 -33 30 -65 18 -31 34 -62 34
-69 0 -7 -20 -26 -43 -44 -66 -49 -251 -154 -263 -149 -7 3 -14 -12 -18 -38
-6 -38 -11 -44 -40 -53 -30 -9 -35 -8 -44 11 -24 50 -23 56 11 56 49 0 60 12
55 56 -3 22 -1 72 4 113 12 101 5 109 -21 26 -29 -93 -62 -166 -73 -159 -5 3
-23 33 -40 67 -27 54 -31 72 -32 147 0 47 4 135 8 195 10 128 43 228 108 326
46 68 50 84 78 318 34 280 40 313 67 396 36 112 36 248 0 441 -30 157 -34 258
-13 307 13 33 125 141 246 237 81 65 179 129 276 182 l74 40 48 -32 c26 -17
120 -68 210 -112 138 -68 166 -78 177 -67 7 8 61 79 119 159 59 80 118 160
132 178 40 52 61 42 113 -55z m-4172 -110 c-16 -16 -17 -16 -17 0 0 10 5 15
10 12 6 -3 10 -1 10 6 0 7 3 9 7 5 4 -3 -1 -14 -10 -23z m5010 -73 c-1 -12 -5
-16 -10 -11 -5 5 -6 14 -3 20 11 16 15 13 13 -9z m47 -32 c-3 -4 2 -8 11 -8 9
0 13 -4 10 -10 -3 -5 0 -10 7 -10 19 0 73 -51 91 -86 8 -16 18 -46 22 -66 8
-44 -13 -60 -70 -53 -52 7 -67 29 -61 87 4 34 1 52 -9 62 -8 8 -15 19 -15 25
0 6 -5 11 -11 11 -8 0 -7 6 2 17 8 9 9 14 3 10 -11 -6 -28 16 -19 25 8 7 43 4
39 -4z m-3652 -365 c10 -9 18 -19 18 -22 0 -4 -25 -34 -55 -66 -62 -67 -129
-155 -117 -155 4 0 29 22 55 49 56 57 96 67 71 18 -21 -39 -202 -308 -225
-333 -10 -11 -19 -25 -19 -30 0 -13 -38 -54 -50 -54 -5 0 -7 19 -5 43 l4 42
-22 -45 c-131 -279 -148 -311 -171 -320 -23 -8 -75 -75 -89 -113 -17 -45 -144
-221 -204 -283 l-67 -69 -4 33 c-3 28 -7 32 -32 32 -41 0 -57 -31 -59 -115 -1
-38 -3 -70 -5 -72 -1 -1 -17 2 -36 7 -19 5 -36 8 -38 6 -2 -3 15 -10 37 -17
23 -7 47 -19 53 -27 11 -13 14 -110 3 -120 -2 -2 -17 5 -33 17 -37 26 -65 28
-58 4 3 -10 8 -31 12 -48 l7 -30 -22 27 c-30 37 -41 35 -41 -6 0 -40 -8 -66
-21 -66 -12 0 -49 75 -50 102 0 13 -3 18 -5 12 -6 -13 -81 -7 -100 8 -6 4 -18
6 -27 2 -24 -9 -28 11 -6 34 23 26 28 26 53 7 29 -22 46 -18 46 10 0 18 7 26
27 31 17 5 28 3 31 -5 5 -14 32 5 32 23 0 7 -3 6 -9 -2 -10 -16 -41 27 -44 62
-1 12 -10 30 -19 40 -10 10 -18 26 -18 37 0 15 -7 19 -34 19 -35 0 -71 24 -61
41 4 5 -3 9 -14 9 -14 0 -19 -5 -15 -15 4 -8 10 -15 16 -15 5 0 7 -4 4 -9 -4
-5 -2 -11 3 -13 5 -1 3 -12 -4 -22 -13 -17 -16 -18 -38 -3 -37 24 -58 48 -51
58 7 12 -25 51 -37 44 -4 -3 -10 -1 -14 5 -3 5 -1 10 5 10 6 0 9 4 5 9 -3 6 1
13 8 18 7 4 21 26 32 48 10 22 29 48 42 58 12 10 23 25 23 34 0 8 12 29 26 47
14 17 53 69 87 116 131 184 256 359 312 440 32 47 90 118 129 158 l69 72 93 0
c102 0 214 20 272 48 21 10 72 46 114 80 61 51 187 131 207 132 3 0 13 -7 23
-17z m-2654 -177 c-7 -8 -15 -12 -17 -11 -5 6 10 25 20 25 5 0 4 -6 -3 -14z
m342 -405 c0 -5 -7 -12 -16 -15 -14 -5 -15 -4 -4 9 14 17 20 19 20 6z m23 -26
c-3 -9 -8 -14 -10 -11 -3 3 -2 9 2 15 9 16 15 13 8 -4z m1886 -171 c-15 -18
-22 -13 -13 10 3 9 10 13 16 10 5 -3 4 -12 -3 -20z m-1443 -240 c-18 -13 -63
-12 -56 2 3 5 12 8 21 7 11 -2 20 8 24 25 l7 27 10 -25 c7 -18 5 -27 -6 -36z
m-131 -42 c-3 -3 -11 0 -18 7 -9 10 -8 11 6 5 10 -3 15 -9 12 -12z m4186 -262
c97 -22 171 -49 152 -57 -6 -2 -55 8 -108 22 -56 15 -114 25 -136 23 -22 -2
-39 -3 -39 -1 0 4 32 33 36 33 2 0 45 -9 95 -20z m-3556 -82 c3 -8 24 -13 55
-13 52 0 66 -8 72 -40 1 -11 8 -23 13 -27 6 -5 5 -8 -3 -8 -8 0 -26 9 -42 20
-28 20 -28 20 -33 0 -6 -25 -21 -25 -44 -1 -10 10 -28 24 -40 30 -29 15 -31
51 -3 51 11 0 23 -6 25 -12z m-110 -58 c3 -5 -1 -10 -9 -10 -9 0 -16 5 -16 10
0 6 4 10 9 10 6 0 13 -4 16 -10z m18 -116 c-8 -22 -20 -16 -37 18 -24 47 -19
55 13 24 16 -16 27 -35 24 -42z m73 -11 c-11 -11 -17 4 -9 23 7 18 8 18 11 1
2 -10 1 -21 -2 -24z m2084 -10 c0 -33 -18 -46 -66 -50 -93 -8 -98 28 -7 53 65
17 73 17 73 -3z m-1093 -5 c4 -7 8 -19 9 -26 2 -10 -1 -11 -12 -1 -10 8 -14 8
-14 0 0 -6 -5 -11 -11 -11 -8 0 -8 4 1 15 6 8 9 19 5 25 -3 5 -2 10 4 10 5 0
13 -6 18 -12z m-952 -56 c0 -18 -20 -15 -23 4 -3 10 1 15 10 12 7 -3 13 -10
13 -16z m129 -14 c-3 -13 -14 -32 -23 -42 -15 -18 -15 -19 7 -14 14 4 22 2 22
-6 0 -7 9 -21 20 -31 22 -20 14 -39 -20 -48 -23 -6 -40 18 -40 53 0 14 -5 20
-13 17 -22 -8 -7 54 17 75 29 24 39 22 30 -4z m3627 -65 c12 -21 35 -54 49
-73 38 -49 48 -84 14 -45 -101 115 -114 125 -152 120 -20 -2 -68 -7 -105 -11
-68 -6 -68 -6 -104 -55 -19 -27 -36 -49 -37 -49 -9 0 38 122 48 126 13 4 175
21 228 23 32 1 39 -3 59 -36z m-4444 1 c20 -20 10 -30 -61 -59 -46 -19 -186
-101 -186 -110 0 -1 24 -1 53 1 38 3 45 2 27 -5 -14 -4 -41 -16 -60 -27 -61
-32 -3 -29 81 5 61 25 92 31 160 32 46 1 95 -3 109 -9 21 -9 15 -11 -40 -12
-139 -3 -166 -7 -216 -33 -71 -36 -173 -138 -175 -174 0 -10 -11 5 -24 32 -13
28 -21 59 -19 70 8 29 116 247 121 242 2 -2 -5 -25 -16 -51 -11 -25 -18 -46
-15 -46 3 0 48 32 101 71 79 59 120 84 141 88 2 1 10 -6 19 -15z m740 -11 c-3
-3 -11 -2 -17 2 -9 6 -9 10 1 16 14 8 27 -7 16 -18z m5933 -13 c0 -5 -5 -10
-11 -10 -5 0 -7 5 -4 10 3 6 8 10 11 10 2 0 4 -4 4 -10z m-4946 -72 c-3 -4
-10 -8 -15 -8 -6 0 -7 5 -4 10 3 6 1 10 -4 10 -6 0 -11 5 -11 10 0 6 8 5 19
-2 11 -7 17 -16 15 -20z m-1224 -2 c14 -26 8 -56 -11 -56 -8 0 -8 4 1 15 10
13 10 19 -4 33 -18 20 -21 32 -8 32 5 0 14 -11 22 -24z m1289 -18 c11 -3 10
-7 -3 -21 -25 -25 -36 -21 -36 14 0 24 3 29 13 22 6 -6 18 -12 26 -15z m-921
-20 c-4 -40 -20 -45 -35 -12 -15 32 -9 44 18 44 17 0 20 -6 17 -32z m1018 -29
c15 -16 25 -31 22 -34 -6 -6 -108 24 -108 32 0 2 4 13 10 23 13 24 40 16 76
-21z m-1441 -20 c-10 -15 -25 -10 -19 6 4 8 10 12 15 9 5 -3 7 -10 4 -15z
m269 -4 c-4 -8 -10 -12 -15 -9 -11 6 -2 24 11 24 5 0 7 -7 4 -15z m5326 4 c0
-12 -24 -24 -42 -21 -20 4 -23 -9 -8 -24 13 -13 4 -40 -15 -48 -7 -2 -20 3
-29 13 -16 17 -15 21 6 53 18 27 29 34 55 34 18 0 33 -3 33 -7z m-6134 -75
c-36 -30 -66 -56 -66 -57 0 -1 -11 -29 -25 -62 -13 -33 -25 -51 -25 -40 l-1
20 -10 -20 c-7 -15 -8 -12 -4 15 9 57 68 136 127 170 77 43 78 37 4 -26z m564
36 c0 -5 -7 -10 -16 -10 -8 0 -12 5 -9 10 3 6 10 10 16 10 5 0 9 -4 9 -10z
m814 -21 c14 -28 14 -30 -2 -27 -10 2 -18 14 -20 31 -4 35 3 34 22 -4z m-1108
-10 c19 -22 19 -22 -5 -10 -72 39 -266 -79 -298 -181 -11 -33 -11 -33 -12 -5
-2 59 44 132 104 165 96 53 180 65 211 31z m919 1 c3 -5 1 -10 -4 -10 -6 0
-11 5 -11 10 0 6 2 10 4 10 3 0 8 -4 11 -10z m4977 -2 c-7 -7 -12 -20 -12 -29
0 -9 -7 -22 -15 -29 -12 -10 -15 -10 -15 4 0 20 -7 20 -27 1 -14 -15 -33 -12
-33 4 0 8 12 13 43 19 4 1 16 11 27 22 11 11 25 20 32 20 9 0 9 -3 0 -12z
m158 -2 c0 -8 -4 -17 -9 -20 -11 -7 -21 -56 -11 -56 4 0 7 -8 6 -17 0 -10 5
-17 12 -15 6 1 12 -4 12 -12 0 -7 -11 -16 -25 -18 -19 -4 -25 -1 -25 13 0 13
-5 17 -17 12 -13 -5 -15 -2 -11 14 9 35 -6 49 -38 35 -14 -7 -29 -10 -33 -6
-3 4 0 9 7 11 17 6 15 23 -3 23 -8 0 -15 4 -15 9 0 14 32 23 43 12 5 -5 15 -8
21 -7 6 2 8 1 3 -1 -11 -7 2 -23 19 -23 8 0 14 10 14 23 0 13 3 27 7 30 12 13
43 7 43 -7z m-5200 -26 c0 -5 -5 -10 -11 -10 -5 0 -7 5 -4 10 3 6 8 10 11 10
2 0 4 -4 4 -10z m90 0 c0 -5 -4 -10 -10 -10 -5 0 -10 5 -10 10 0 6 5 10 10 10
6 0 10 -4 10 -10z m50 -16 c0 -12 -4 -12 -20 -2 -13 8 -16 15 -8 19 15 10 28
2 28 -17z m138 -10 c5 3 12 -1 16 -9 9 -23 -6 -25 -48 -4 -22 10 -46 19 -53
19 -19 0 -16 18 5 22 9 2 29 -5 44 -15 14 -11 31 -17 36 -13z m86 20 c20 -19
20 -28 1 -20 -8 3 -21 -1 -28 -9 -21 -20 -40 1 -24 26 14 23 30 24 51 3z
m-324 2 c0 -3 -4 -8 -10 -11 -5 -3 -10 -1 -10 4 0 6 5 11 10 11 6 0 10 -2 10
-4z m-835 -16 c3 -5 -1 -10 -9 -10 -9 0 -16 5 -16 10 0 6 4 10 9 10 6 0 13 -4
16 -10z m576 3 c7 -39 5 -53 -4 -44 -13 13 -17 51 -5 51 4 0 9 -3 9 -7z m-76
-24 c11 -17 -1 -21 -15 -4 -8 9 -8 15 -2 15 6 0 14 -5 17 -11z m200 1 c3 -5 1
-10 -4 -10 -6 0 -11 5 -11 10 0 6 2 10 4 10 3 0 8 -4 11 -10z m4317 -15 c7
-33 -1 -39 -24 -18 -23 21 -23 43 1 43 12 0 20 -9 23 -25z m1081 5 c16 0 -12
-24 -44 -37 -23 -10 -26 -9 -25 8 1 23 25 41 44 34 8 -3 19 -5 25 -5z m-4060
-7 c-7 -2 -19 -2 -25 0 -7 3 -2 5 12 5 14 0 19 -2 13 -5z m3702 -3 c-3 -5 -11
-10 -16 -10 -6 0 -7 5 -4 10 3 6 11 10 16 10 6 0 7 -4 4 -10z m-1035 -4 c0
-11 -19 -15 -25 -6 -3 5 1 10 9 10 9 0 16 -2 16 -4z m72 -18 c-7 -7 -12 -8
-12 -2 0 14 12 26 19 19 2 -3 -1 -11 -7 -17z m1019 12 c5 0 9 -4 9 -9 0 -5 -8
-8 -17 -6 -10 2 -21 4 -25 4 -5 1 -8 6 -8 12 0 6 7 8 16 5 9 -3 20 -6 25 -6z
m119 0 c0 -5 -5 -10 -11 -10 -5 0 -7 5 -4 10 3 6 8 10 11 10 2 0 4 -4 4 -10z
m-5806 -10 c10 -1 16 -4 13 -7 -4 -3 -38 -6 -76 -7 -45 -1 -75 -6 -83 -15 -14
-14 3 -13 75 5 22 5 31 2 43 -15 9 -12 31 -23 55 -27 71 -12 41 -24 -60 -24
-113 0 -149 -10 -210 -56 l-45 -34 -22 21 c-26 25 -54 19 -54 -10 0 -32 -19
-35 -30 -5 -9 22 -6 36 12 72 44 88 108 114 258 107 58 -3 113 -5 124 -5z
m5726 -5 c0 -8 7 -15 16 -15 8 0 12 -5 9 -10 -5 -8 -11 -7 -21 1 -11 9 -16 6
-23 -14 -5 -13 -18 -27 -28 -31 -14 -6 -15 -4 -6 5 6 6 9 17 6 24 -4 13 24 52
40 54 4 1 7 -6 7 -14z m-930 -17 c0 -15 -37 -27 -48 -16 -7 7 -21 2 -46 -17
-23 -17 -42 -25 -53 -21 -14 6 -15 9 -4 15 7 5 13 12 12 17 0 5 9 8 19 6 11
-2 20 1 20 7 0 10 35 17 77 16 13 0 23 -3 23 -7z m171 -4 c16 -19 -2 -34 -43
-34 -22 0 -26 4 -21 18 13 34 43 42 64 16z m162 -18 c-5 -24 -27 -36 -70 -36
-13 0 -23 3 -23 8 0 5 65 40 96 52 1 0 -1 -11 -3 -24z m452 4 c-10 -11 -25
-20 -33 -20 -12 0 -12 4 3 20 10 11 25 20 33 20 12 0 12 -4 -3 -20z m-6284 -7
c13 -16 12 -17 -3 -4 -10 7 -18 15 -18 17 0 8 8 3 21 -13z m5967 1 c-9 -9 -21
-13 -27 -9 -16 10 -3 25 22 25 20 0 20 -1 5 -16z m86 2 c-10 -8 -21 -12 -24
-10 -5 6 21 24 34 24 6 0 1 -6 -10 -14z m576 4 c0 -5 -5 -10 -11 -10 -5 0 -7
5 -4 10 3 6 8 10 11 10 2 0 4 -4 4 -10z m-1456 -9 c3 -5 -3 -11 -14 -14 -20
-5 -26 3 -13 16 9 10 21 9 27 -2z m-1818 -8 c-9 -10 -35 -13 -40 -4 -3 4 7 8
21 9 15 1 23 -1 19 -5z m1764 -3 c-13 -8 -12 -10 3 -10 9 0 17 -5 17 -10 0 -7
7 -7 21 1 17 9 23 8 30 -2 13 -21 11 -41 -3 -32 -7 4 -24 9 -37 11 -18 2 -22
-1 -18 -12 8 -20 6 -20 -29 -1 -21 11 -24 15 -10 15 12 0 16 5 12 16 -7 19 0
34 17 34 7 0 6 -4 -3 -10z m1095 -5 c6 -6 11 -16 13 -23 2 -10 -3 -10 -17 -2
-11 5 -28 10 -39 10 -10 0 -19 6 -19 14 0 16 47 17 62 1z m-721 -12 c4 -10 4
-15 1 -11 -3 3 -21 2 -40 -2 -25 -6 -38 -4 -46 6 -8 10 -8 14 0 14 6 0 11 -5
11 -11 0 -5 10 -3 22 5 29 21 44 20 52 -1z m1212 2 c-3 -8 -1 -15 4 -15 6 0
10 -4 10 -8 0 -4 -15 -8 -32 -8 l-33 0 20 23 c23 26 40 30 31 8z m-979 -1 c-3
-3 -12 -4 -19 -1 -8 3 -5 6 6 6 11 1 17 -2 13 -5z m698 -8 c-11 -8 -24 -12
-29 -8 -5 3 -1 9 10 13 31 12 39 10 19 -5z m50 -16 c-6 -9 -9 -9 -16 1 -10 17
0 34 13 21 6 -6 7 -16 3 -22z m125 25 c0 -20 -33 -65 -48 -65 -15 1 -15 2 3
16 11 8 21 20 21 27 3 25 4 27 14 27 6 0 10 -2 10 -5z m-3101 -25 c-15 -10
-41 -1 -34 10 3 5 14 6 26 3 15 -4 17 -8 8 -13z m2126 10 c3 -5 2 -10 -4 -10
-5 0 -13 5 -16 10 -3 6 -2 10 4 10 5 0 13 -4 16 -10z m-2615 -25 c0 -20 -20
-29 -33 -16 -9 9 -8 10 7 5 16 -6 17 -4 11 16 -5 15 -4 20 4 16 6 -4 11 -13
11 -21z m94 17 c3 -5 -1 -9 -9 -9 -8 0 -12 4 -9 9 3 4 7 8 9 8 2 0 6 -4 9 -8z
m346 -13 c0 -5 -7 -9 -15 -9 -15 0 -20 12 -9 23 8 8 24 -1 24 -14z m2490 -11
c-40 -20 -58 -20 -45 1 3 6 15 11 25 11 10 0 21 4 25 10 3 5 12 7 21 3 10 -4
2 -12 -26 -25z m177 17 c0 -8 -4 -15 -8 -15 -11 0 -20 16 -12 24 11 11 20 7
20 -9z m203 5 c0 -5 -4 -10 -10 -10 -5 0 -10 5 -10 10 0 6 5 10 10 10 6 0 10
-4 10 -10z m-3842 -25 c-3 -3 -9 2 -12 12 -6 14 -5 15 5 6 7 -7 10 -15 7 -18z
m2820 7 c2 -7 -3 -12 -12 -12 -9 0 -16 7 -16 16 0 17 22 14 28 -4z m29 -4 c-3
-8 -6 -5 -6 6 -1 11 2 17 5 13 3 -3 4 -12 1 -19z m392 1 c-22 -13 -5 -19 29
-10 30 9 44 0 22 -14 -6 -4 -7 -12 -3 -18 3 -7 -3 -4 -15 7 -21 18 -21 18 -28
-8 -3 -14 -10 -23 -15 -21 -4 3 -6 12 -2 21 4 12 -1 14 -27 9 l-32 -6 29 29
c15 16 34 27 41 24 11 -4 11 -6 1 -13z m-2462 -8 c10 -15 9 -20 -2 -25 -8 -3
-15 -1 -15 3 0 5 -3 16 -6 25 -9 22 9 20 23 -3z m2620 5 c3 -2 0 -13 -6 -23
-6 -10 -11 -13 -11 -7 0 15 -38 25 -46 13 -9 -15 -20 -10 -21 10 -1 17 4 19
39 16 22 -2 42 -6 45 -9z m517 5 c3 -5 -2 -11 -12 -14 -9 -2 -26 -8 -37 -13
-16 -6 -15 -3 5 14 28 24 36 26 44 13z m-3202 -30 c-9 -10 -20 -16 -24 -14 -5
2 -4 -7 2 -21 12 -34 -3 -34 -19 0 -10 22 -8 28 11 44 29 23 53 16 30 -9z
m1908 8 c0 -6 -4 -7 -10 -4 -5 3 -10 11 -10 16 0 6 5 7 10 4 6 -3 10 -11 10
-16z m900 17 c0 -3 -4 -8 -10 -11 -5 -3 -10 -1 -10 4 0 6 5 11 10 11 6 0 10
-2 10 -4z m692 -18 c-7 -7 -12 -8 -12 -2 0 14 12 26 19 19 2 -3 -1 -11 -7 -17z
m-5783 -8 c116 -8 173 -26 191 -60 15 -28 9 -33 -24 -20 -15 5 -46 10 -69 10
-47 0 -248 26 -278 35 -12 4 -19 16 -19 32 0 24 2 25 46 18 26 -4 94 -10 153
-15z m1261 16 c0 -3 -4 -8 -10 -11 -5 -3 -10 -1 -10 4 0 6 5 11 10 11 6 0 10
-2 10 -4z m160 0 c0 -3 -4 -8 -10 -11 -5 -3 -10 -1 -10 4 0 6 5 11 10 11 6 0
10 -2 10 -4z m594 -13 c6 -15 4 -15 -18 -7 -20 8 -21 21 -1 21 8 0 16 -6 19
-14z m459 -5 c9 -31 2 -33 -23 -6 -13 13 -20 18 -17 12 7 -12 -21 -29 -31 -19
-3 3 0 5 6 5 7 0 12 7 12 15 0 25 47 19 53 -7z m43 5 c-3 -17 -26 -32 -26 -16
0 8 20 33 26 33 1 0 1 -8 0 -17z m1987 0 c-3 -7 -9 -10 -14 -7 -5 3 -9 0 -9
-7 0 -7 -3 -10 -6 -6 -10 10 3 34 19 34 8 0 13 -6 10 -14z m107 7 c0 -5 -2
-10 -4 -10 -3 0 -8 5 -11 10 -3 6 -1 10 4 10 6 0 11 -4 11 -10z m1010 0 c0 -5
-2 -10 -4 -10 -3 0 -8 5 -11 10 -3 6 -1 10 4 10 6 0 11 -4 11 -10z m133 -4 c3
-8 -2 -16 -14 -19 -16 -4 -17 -2 -8 14 12 23 15 23 22 5z m-4573 0 c0 -3 -4
-8 -10 -11 -5 -3 -10 -1 -10 4 0 6 5 11 10 11 6 0 10 -2 10 -4z m3520 -13 c0
-14 -35 -27 -50 -18 -5 3 -10 0 -11 -7 0 -7 -4 -4 -9 7 -13 30 -13 30 30 30
25 0 40 -4 40 -12z m501 -5 c11 -21 11 -22 -4 -9 -10 7 -17 17 -17 22 0 15 9
10 21 -13z m-651 4 c0 -4 -5 -13 -12 -20 -8 -8 -8 -15 2 -27 7 -8 10 -18 6
-22 -3 -3 -6 -1 -6 6 0 7 -4 10 -9 7 -5 -3 -12 1 -15 10 -3 9 -11 12 -18 8 -7
-4 -2 4 12 19 25 27 40 34 40 19z m180 -8 c0 -8 -4 -12 -10 -9 -5 3 -10 10
-10 16 0 5 5 9 10 9 6 0 10 -7 10 -16z m510 0 c0 -8 -5 -12 -10 -9 -6 4 -8 11
-5 16 9 14 15 11 15 -7z m130 6 c0 -5 -4 -10 -10 -10 -5 0 -10 5 -10 10 0 6 5
10 10 10 6 0 10 -4 10 -10z m-3516 -26 c8 -21 -7 -17 -21 6 -11 16 -10 18 1
14 8 -3 17 -12 20 -20z m2371 15 c11 -17 -1 -21 -15 -4 -8 9 -8 15 -2 15 6 0
14 -5 17 -11z m390 1 c3 -5 -2 -10 -11 -10 -10 0 -14 -3 -11 -7 9 -9 -13 -34
-24 -27 -5 3 -1 16 8 29 20 27 29 30 38 15z m325 6 c0 -3 -4 -8 -10 -11 -5 -3
-10 -1 -10 4 0 6 5 11 10 11 6 0 10 -2 10 -4z m200 -22 c0 -8 -4 -14 -8 -14
-4 0 -8 9 -8 19 0 11 4 17 8 15 4 -3 8 -12 8 -20z m-3410 12 c0 -3 -4 -8 -10
-11 -5 -3 -10 -1 -10 4 0 6 5 11 10 11 6 0 10 -2 10 -4z m942 -15 c8 12 9 11
5 -1 -2 -8 -12 -15 -23 -15 -11 0 -19 -7 -19 -17 0 -10 -6 -23 -12 -29 -10
-10 -12 -6 -10 19 1 18 8 32 15 32 6 0 12 8 12 18 1 15 2 15 11 -2 9 -15 13
-16 21 -5z m1523 9 c3 -5 -1 -10 -9 -10 -9 0 -16 5 -16 10 0 6 4 10 9 10 6 0
13 -4 16 -10z m92 -4 c0 -8 -6 -12 -14 -9 -7 3 -13 9 -13 14 0 5 6 9 13 9 8 0
14 -6 14 -14z m1320 1 c-5 -27 -37 -30 -37 -4 0 7 9 13 20 14 11 1 19 -4 17
-10z m43 9 c0 -2 -7 -7 -16 -10 -8 -3 -12 -2 -9 4 6 10 25 14 25 6z m-3121
-20 c11 -14 6 -15 -27 -7 -4 1 8 21 12 21 2 0 9 -6 15 -14z m2361 6 c0 -5 -7
-9 -15 -9 -8 0 -12 4 -9 9 3 4 9 8 15 8 5 0 9 -4 9 -8z m665 -2 c3 -5 1 -10
-4 -10 -6 0 -11 5 -11 10 0 6 2 10 4 10 3 0 8 -4 11 -10z m-730 -19 c-3 -6
-11 -11 -17 -11 -6 0 -6 6 2 15 14 17 26 13 15 -4z m285 9 c0 -5 -2 -10 -4
-10 -3 0 -8 5 -11 10 -3 6 -1 10 4 10 6 0 11 -4 11 -10z m370 6 c0 -2 -7 -7
-16 -10 -8 -3 -12 -2 -9 4 6 10 25 14 25 6z m-4869 -29 c-10 -9 -11 -8 -5 6 3
10 9 15 12 12 3 -3 0 -11 -7 -18z m1549 17 c0 -9 -28 -34 -38 -34 -6 0 -12 7
-16 15 -3 8 -1 15 4 15 6 0 10 -6 10 -12 0 -7 5 -5 11 5 9 16 29 24 29 11z
m2765 -4 c3 -5 1 -10 -4 -10 -6 0 -11 5 -11 10 0 6 2 10 4 10 3 0 8 -4 11 -10z
m501 3 c-10 -10 -46 -11 -40 -1 3 4 15 8 26 8 12 0 18 -3 14 -7z m-3372 -16
c3 3 6 0 6 -8 0 -8 -9 -20 -20 -26 -16 -11 -18 -10 -14 1 3 8 1 17 -5 21 -20
12 -12 26 8 16 10 -6 21 -7 25 -4z m509 -2 c4 -8 3 -16 -1 -19 -4 -3 -9 4 -9
15 -2 23 3 25 10 4z m2102 5 c3 -5 1 -10 -4 -10 -6 0 -11 5 -11 10 0 6 2 10 4
10 3 0 8 -4 11 -10z m959 -5 c-6 -16 -24 -21 -24 -7 0 11 11 22 21 22 5 0 6
-7 3 -15z m-3954 1 c0 -3 -4 -8 -10 -11 -5 -3 -10 -1 -10 4 0 6 5 11 10 11 6
0 10 -2 10 -4z m411 -43 c-8 -15 -9 -12 -6 12 5 40 7 43 12 23 2 -10 0 -25 -6
-35z m2659 43 c0 -11 -19 -15 -25 -6 -3 5 1 10 9 10 9 0 16 -2 16 -4z m-2736
-41 c-3 -8 -12 -11 -20 -8 -16 6 -16 6 -8 27 5 13 10 14 20 6 7 -7 10 -18 8
-25z m373 3 c-3 -7 -5 -2 -5 12 0 14 2 19 5 13 2 -7 2 -19 0 -25z m1783 4 c0
-15 -2 -15 -10 -2 -6 10 -10 11 -10 3 0 -7 -5 -13 -10 -13 -6 0 -5 8 2 19 14
22 28 18 28 -7z m522 6 c-7 -7 -12 -8 -12 -2 0 14 12 26 19 19 2 -3 -1 -11 -7
-17z m217 8 c7 -8 8 -17 3 -19 -4 -3 -13 3 -20 14 -14 22 0 26 17 5z m681 -2
c0 -8 -4 -12 -10 -9 -5 3 -10 1 -10 -6 0 -7 -2 -10 -5 -7 -8 7 5 38 16 38 5 0
9 -7 9 -16z m-560 -14 c0 -13 -5 -18 -15 -14 -11 5 -12 9 -2 20 16 18 17 17
17 -6z m-3185 0 c3 -5 1 -10 -4 -10 -6 0 -11 5 -11 10 0 6 2 10 4 10 3 0 8 -4
11 -10z m69 -11 c-3 -5 -10 -7 -15 -3 -5 3 -7 10 -3 15 3 5 10 7 15 3 5 -3 7
-10 3 -15z m345 18 c-2 -1 -12 -9 -22 -16 -15 -12 -17 -12 -11 3 3 9 13 16 22
16 8 0 13 -1 11 -3z m2028 -13 c0 -7 -10 -11 -23 -10 -12 0 -20 4 -18 8 2 3
-2 8 -8 11 -7 2 1 4 18 3 17 -1 31 -6 31 -12z m60 -14 c-1 -17 -3 -18 -15 -6
-8 8 -11 19 -7 25 9 16 24 4 22 -19z m40 15 c0 -6 -6 -12 -12 -12 -6 0 -12 6
-12 12 0 6 6 12 12 12 6 0 12 -6 12 -12z m728 5 c-3 -5 -1 -18 4 -29 8 -14 7
-20 -3 -24 -10 -4 -12 0 -8 15 4 18 3 19 -18 8 -23 -12 -22 -3 5 27 12 15 29
17 20 3z m-3160 -9 c3 -5 1 -12 -5 -16 -5 -3 -10 1 -10 9 0 18 6 21 15 7z
m179 -12 c-3 -5 -10 -7 -15 -3 -5 3 -7 10 -3 15 3 5 10 7 15 3 5 -3 7 -10 3
-15z m2851 2 c-3 -6 -11 -11 -16 -11 -5 0 -4 6 3 14 14 16 24 13 13 -3z m166
6 c-6 -8 -7 -18 -3 -22 4 -5 2 -5 -5 -1 -14 8 -6 36 9 36 7 0 6 -5 -1 -13z
m-346 -16 c3 -5 1 -12 -5 -16 -5 -3 -10 1 -10 9 0 18 6 21 15 7z m41 -3 c4 -6
3 -8 -3 -5 -6 4 -14 0 -17 -9 -4 -9 -9 -15 -11 -12 -8 7 5 38 15 38 5 0 12 -5
16 -12z m67 5 c4 9 6 9 6 0 2 -20 -15 -23 -35 -7 -18 14 -18 15 3 5 16 -8 23
-8 26 2z m-3321 -35 c-15 -15 -24 -6 -16 16 5 12 10 14 17 7 8 -8 8 -14 -1
-23z m3881 6 c4 -23 3 -24 -10 -11 -9 8 -12 20 -9 26 10 16 13 14 19 -15z
m-3713 12 c0 -3 -4 -8 -10 -11 -5 -3 -10 -1 -10 4 0 6 5 11 10 11 6 0 10 -2
10 -4z m188 -21 c-3 -3 -9 2 -12 12 -6 14 -5 15 5 6 7 -7 10 -15 7 -18z m2802
21 c0 -3 -4 -8 -10 -11 -5 -3 -10 -1 -10 4 0 6 5 11 10 11 6 0 10 -2 10 -4z
m-3219 -31 c10 6 11 5 3 -4 -14 -15 -44 -4 -44 17 0 13 2 13 13 -3 9 -11 19
-15 28 -10z m115 7 c-8 -8 -19 -11 -25 -8 -20 13 -12 26 14 24 21 -2 23 -4 11
-16z m3224 2 c0 -8 -4 -12 -10 -9 -5 3 -10 10 -10 16 0 5 5 9 10 9 6 0 10 -7
10 -16z m105 7 c3 -5 1 -12 -5 -16 -5 -3 -10 1 -10 9 0 18 6 21 15 7z m565 -7
c0 -8 -4 -12 -10 -9 -5 3 -10 10 -10 16 0 5 5 9 10 9 6 0 10 -7 10 -16z m35
-3 c-3 -6 -11 -8 -17 -5 -6 4 -5 9 3 15 16 10 23 4 14 -10z m-3875 5 c0 -3 -4
-8 -10 -11 -5 -3 -10 -1 -10 4 0 6 5 11 10 11 6 0 10 -2 10 -4z m2344 -8 c-4
-6 1 -17 11 -25 11 -7 14 -13 8 -13 -7 0 -20 -8 -29 -17 -17 -17 -18 -17 -10
2 5 11 9 29 11 40 3 24 3 25 11 25 3 0 2 -5 -2 -12z m149 -1 c3 -8 -1 -14 -8
-14 -7 0 -11 6 -8 14 3 7 6 13 8 13 2 0 5 -6 8 -13z m377 -12 c0 -8 -4 -16 -9
-19 -5 -3 -8 5 -7 18 1 25 16 26 16 1z m42 3 c-7 -7 -12 -8 -12 -2 0 14 12 26
19 19 2 -3 -1 -11 -7 -17z m-2882 -4 c0 -8 -4 -12 -10 -9 -5 3 -10 10 -10 16
0 5 5 9 10 9 6 0 10 -7 10 -16z m2367 -21 c-3 -10 -5 -4 -5 12 0 17 2 24 5 18
2 -7 2 -21 0 -30z m373 10 c0 -14 -3 -23 -7 -19 -10 10 -11 46 -1 46 4 0 8
-12 8 -27z m-115 7 c3 -6 -1 -7 -9 -4 -18 7 -21 14 -7 14 6 0 13 -4 16 -10z
m45 6 c0 -3 -4 -8 -10 -11 -5 -3 -10 -1 -10 4 0 6 5 11 10 11 6 0 10 -2 10 -4z
m-140 -16 c0 -5 -4 -10 -10 -10 -5 0 -10 5 -10 10 0 6 5 10 10 10 6 0 10 -4
10 -10z m410 0 c0 -5 -2 -10 -4 -10 -3 0 -8 5 -11 10 -3 6 -1 10 4 10 6 0 11
-4 11 -10z m-383 -35 c-18 -19 -28 -7 -15 15 8 13 15 15 19 8 4 -6 2 -17 -4
-23z m-157 21 c0 -2 -8 -10 -17 -17 -16 -13 -17 -12 -4 4 13 16 21 21 21 13z
m100 -6 c8 -5 11 -12 7 -17 -5 -4 -12 -1 -17 7 -7 11 -10 12 -10 2 0 -7 -5
-10 -10 -7 -11 7 -4 25 8 25 4 0 14 -4 22 -10z m1140 -10 c0 -5 -4 -10 -10
-10 -5 0 -10 5 -10 10 0 6 5 10 10 10 6 0 10 -4 10 -10z m-440 -10 c0 -5 -5
-10 -11 -10 -5 0 -7 5 -4 10 3 6 8 10 11 10 2 0 4 -4 4 -10z m-875 -20 c-3 -5
-12 -10 -18 -10 -7 0 -6 4 3 10 19 12 23 12 15 0z m675 0 c0 -5 -4 -10 -10
-10 -5 0 -10 5 -10 10 0 6 5 10 10 10 6 0 10 -4 10 -10z m40 -20 c0 -3 -10 -6
-22 -7 -13 0 -17 1 -10 4 6 3 12 12 12 21 0 15 2 15 10 2 5 -8 10 -17 10 -20z
m-680 16 c0 -3 -4 -8 -10 -11 -5 -3 -10 -1 -10 4 0 6 5 11 10 11 6 0 10 -2 10
-4z m345 -6 c3 -5 1 -10 -4 -10 -6 0 -11 5 -11 10 0 6 2 10 4 10 3 0 8 -4 11
-10z m89 -6 c3 -8 2 -12 -4 -9 -6 3 -10 10 -10 16 0 14 7 11 14 -7z m413 10
c-3 -3 -12 -4 -19 -1 -8 3 -5 6 6 6 11 1 17 -2 13 -5z m447 -10 c9 -24 2 -26
-12 -4 -7 11 -8 20 -3 20 5 0 12 -7 15 -16z m-2771 -7 c4 3 7 -2 7 -12 0 -13
-3 -15 -13 -7 -20 17 -54 3 -60 -23 -2 -14 1 -23 6 -22 17 3 20 -30 3 -36 -9
-4 -16 3 -20 19 -5 20 -11 23 -31 18 -21 -5 -25 -3 -25 15 0 23 19 28 38 9 9
-9 12 -8 12 8 0 23 48 46 66 32 6 -4 14 -5 17 -1z m74 0 c-3 -7 2 -22 10 -32
12 -17 15 -18 23 -5 8 12 9 10 7 -7 -3 -24 -17 -44 -17 -25 0 7 -7 12 -16 12
-10 0 -14 6 -11 15 4 8 2 17 -3 20 -9 5 -3 35 7 35 3 0 3 -6 0 -13z m-2057 -3
c0 -8 -19 -13 -24 -6 -3 5 1 9 9 9 8 0 15 -2 15 -3z m2226 -26 l-16 -22 0 22
c0 13 4 20 10 17 6 -3 10 -1 10 6 0 7 3 10 6 6 3 -3 -1 -16 -10 -29z m1444 6
c0 -8 -4 -14 -10 -14 -5 0 -10 9 -10 21 0 11 5 17 10 14 6 -3 10 -13 10 -21z
m35 15 c11 -17 -1 -21 -15 -4 -8 9 -8 15 -2 15 6 0 14 -5 17 -11z m735 7 c0
-3 -4 -8 -10 -11 -5 -3 -10 -1 -10 4 0 6 5 11 10 11 6 0 10 -2 10 -4z m-4340
-16 c0 -5 -5 -10 -11 -10 -5 0 -7 5 -4 10 3 6 8 10 11 10 2 0 4 -4 4 -10z m95
-1 c11 -17 -1 -21 -15 -4 -8 9 -8 15 -2 15 6 0 14 -5 17 -11z m3241 -2 c4 -4
0 -7 -9 -7 -9 0 -18 4 -21 9 -7 10 20 9 30 -2z m400 1 c3 -4 -1 -5 -10 -4 -8
1 -18 5 -22 8 -3 4 1 5 10 4 8 -1 18 -5 22 -8z m234 -3 c11 -13 10 -14 -4 -9
-9 3 -16 10 -16 15 0 13 6 11 20 -6z m130 5 c0 -5 -5 -10 -11 -10 -5 0 -7 5
-4 10 3 6 8 10 11 10 2 0 4 -4 4 -10z m630 -6 c0 -6 -11 -11 -25 -11 -23 0
-31 7 -20 18 9 10 45 4 45 -7z m-2670 -19 c0 -17 -4 -23 -15 -19 -11 5 -12 11
-4 25 13 26 19 24 19 -6z m130 4 c0 -5 -7 -9 -15 -9 -9 0 -12 6 -9 15 6 15 24
11 24 -6z m1677 6 c0 -8 -4 -12 -9 -9 -4 3 -8 9 -8 15 0 5 4 9 8 9 5 0 9 -7 9
-15z m547 -6 c-8 -13 -21 -11 -27 5 -4 10 0 12 14 9 10 -3 16 -9 13 -14z m140
5 c3 -8 2 -12 -4 -9 -6 3 -10 10 -10 16 0 14 7 11 14 -7z m83 -10 c1 -18 -2
-23 -9 -16 -6 6 -8 18 -5 26 9 22 12 20 14 -10z m-2932 6 c19 -8 19 -9 -2 -9
-12 -1 -25 4 -28 9 -7 12 2 12 30 0z m220 0 c-3 -5 -12 -10 -18 -10 -7 0 -6 4
3 10 19 12 23 12 15 0z m1505 0 c0 -5 -2 -10 -4 -10 -3 0 -8 5 -11 10 -3 6 -1
10 4 10 6 0 11 -4 11 -10z m501 -12 c11 -20 10 -22 -3 -10 -13 10 -17 10 -21
0 -3 -7 -6 -3 -6 10 -1 12 3 22 9 22 5 0 15 -10 21 -22z m529 -14 c0 -8 -6
-11 -15 -8 -8 4 -15 15 -15 26 0 17 3 18 15 8 8 -7 15 -19 15 -26z m150 15 c0
-6 -4 -7 -10 -4 -5 3 -10 11 -10 16 0 6 5 7 10 4 6 -3 10 -11 10 -16z m160 -9
c0 -5 -4 -10 -10 -10 -5 0 -10 5 -10 10 0 6 5 10 10 10 6 0 10 -4 10 -10z
m-867 -50 c-6 -7 -23 23 -23 40 0 8 6 4 13 -10 8 -14 12 -27 10 -30z m497 35
c0 -8 -7 -11 -20 -8 -11 3 -20 8 -20 12 0 4 9 7 20 8 11 1 20 -4 20 -12z
m-2840 -5 c0 -5 -7 -10 -16 -10 -8 0 -12 5 -9 10 3 6 10 10 16 10 5 0 9 -4 9
-10z m3135 0 c11 -17 -5 -32 -21 -19 -8 6 -14 15 -14 20 0 12 27 11 35 -1z
m-3355 -14 c0 -11 -19 -15 -25 -6 -3 5 1 10 9 10 9 0 16 -2 16 -4z m110 -27
c0 -6 -7 -8 -16 -5 -9 3 -18 6 -20 6 -2 0 -4 7 -4 15 0 13 4 14 20 5 11 -6 20
-16 20 -21z m2350 15 c0 -8 -5 -12 -10 -9 -6 4 -8 11 -5 16 9 14 15 11 15 -7z
m-2575 -3 c3 -5 1 -12 -5 -16 -5 -3 -10 1 -10 9 0 18 6 21 15 7z m2522 -11 c4
-13 3 -13 -6 0 -9 13 -11 13 -11 -2 0 -11 -6 -15 -20 -11 -11 3 -20 9 -20 12
0 26 51 26 57 1z m80 -2 c-3 -8 -6 -5 -6 6 -1 11 2 17 5 13 3 -3 4 -12 1 -19z
m126 9 c3 -8 -1 -14 -9 -14 -15 0 -18 9 -7 20 9 9 10 9 16 -6z m-2468 -16 c-3
-6 -11 -11 -17 -11 -6 0 -6 6 2 15 14 17 26 13 15 -4z m2185 -12 c6 -10 9 -19
6 -19 -9 0 -36 31 -36 41 0 14 18 1 30 -22z m-2520 12 c0 -12 -20 -25 -27 -18
-7 7 6 27 18 27 5 0 9 -4 9 -9z m2854 -16 c-4 -8 -11 -12 -17 -8 -8 5 -7 8 1
11 7 2 9 9 6 14 -4 7 -2 8 4 4 6 -4 9 -13 6 -21z m445 8 c9 -15 12 -16 20 -4
5 7 14 10 20 7 18 -11 13 -26 -8 -26 -31 0 -73 19 -66 30 9 15 23 12 34 -7z
m-3196 -21 c-3 -12 -9 -19 -14 -16 -5 3 -3 14 3 24 15 24 19 21 11 -8z m71 13
c3 -8 1 -15 -4 -15 -6 0 -10 7 -10 15 0 8 2 15 4 15 2 0 6 -7 10 -15z m353 -2
c-9 -9 -20 -13 -24 -9 -4 4 -1 11 7 16 25 16 35 11 17 -7z m2503 7 c0 -5 -2
-10 -4 -10 -3 0 -8 5 -11 10 -3 6 -1 10 4 10 6 0 11 -4 11 -10z m380 6 c0 -11
-19 -15 -25 -6 -3 5 1 10 9 10 9 0 16 -2 16 -4z m-995 -16 c3 -5 1 -10 -4 -10
-6 0 -11 5 -11 10 0 6 2 10 4 10 3 0 8 -4 11 -10z m311 -18 c-4 -3 -14 2 -24
12 -16 18 -16 18 6 6 13 -6 21 -14 18 -18z m102 -2 c3 -9 -1 -11 -12 -7 -10 4
-22 7 -27 7 -5 0 -9 7 -9 15 0 18 42 5 48 -15z m-2978 10 c0 -5 -4 -10 -10
-10 -5 0 -10 5 -10 10 0 6 5 10 10 10 6 0 10 -4 10 -10z m210 1 c0 -6 -4 -13
-10 -16 -5 -3 -10 1 -10 9 0 9 5 16 10 16 6 0 10 -4 10 -9z m2150 5 c0 -3 -4
-8 -10 -11 -5 -3 -10 -1 -10 4 0 6 5 11 10 11 6 0 10 -2 10 -4z m250 -16 c0
-5 -4 -10 -10 -10 -5 0 -10 5 -10 10 0 6 5 10 10 10 6 0 10 -4 10 -10z m438
-2 c16 -16 15 -28 -1 -28 -7 0 -18 9 -25 20 -10 16 -10 20 1 20 7 0 18 -5 25
-12z m-2734 -27 c3 -5 -1 -12 -10 -15 -22 -9 -24 -8 -24 9 0 16 25 21 34 6z
m2696 -17 c0 -21 -17 -17 -23 5 -3 14 -1 18 9 14 8 -3 14 -11 14 -19z m-2872
-12 c4 -27 -22 -39 -43 -22 -14 11 -14 15 2 32 20 23 37 19 41 -10z m252 8 c0
-5 -5 -10 -11 -10 -5 0 -7 5 -4 10 3 6 8 10 11 10 2 0 4 -4 4 -10z m2050 -21
c0 -5 -4 -9 -10 -9 -5 0 -10 7 -10 16 0 8 5 12 10 9 6 -3 10 -10 10 -16z
m-2635 -9 c-3 -5 -11 -10 -16 -10 -6 0 -7 5 -4 10 3 6 11 10 16 10 6 0 7 -4 4
-10z m2685 -5 c0 -8 -4 -15 -10 -15 -5 0 -10 7 -10 15 0 8 5 15 10 15 6 0 10
-7 10 -15z m116 -30 l-11 -24 -7 26 c-9 32 -1 48 17 33 10 -8 10 -16 1 -35z
m1015 32 c-1 -12 -15 -9 -19 4 -3 6 1 10 8 8 6 -3 11 -8 11 -12z m-959 -17
c-12 -11 -24 -20 -28 -20 -4 0 1 9 11 20 10 11 23 20 28 20 6 0 1 -9 -11 -20z
m58 10 c0 -5 -2 -10 -4 -10 -3 0 -8 5 -11 10 -3 6 -1 10 4 10 6 0 11 -4 11
-10z m750 -45 c0 -8 -6 -12 -14 -9 -8 3 -12 12 -9 20 6 17 23 9 23 -11z
m-1150 -39 c0 -2 3 -11 6 -19 6 -16 -32 -31 -42 -16 -9 15 4 39 21 39 8 0 15
-2 15 -4z m70 -7 c0 -7 9 -9 22 -6 24 7 48 -8 48 -29 0 -19 -26 -18 -61 3 -28
17 -40 43 -19 43 6 0 10 -5 10 -11z m200 -4 c11 -13 10 -14 -4 -9 -9 3 -16 10
-16 15 0 13 6 11 20 -6z m420 5 c0 -5 -4 -10 -9 -10 -6 0 -13 5 -16 10 -3 6 1
10 9 10 9 0 16 -4 16 -10z m-3537 -16 c8 -8 -3 -34 -14 -34 -5 0 -9 9 -9 20 0
19 11 26 23 14z m-343 -18 c0 -16 -18 -31 -27 -22 -8 8 5 36 17 36 5 0 10 -6
10 -14z m3390 -36 c0 -13 -11 -13 -30 0 -12 8 -11 10 8 10 12 0 22 -4 22 -10z
m-354 -24 c3 -15 17 -29 35 -35 30 -10 37 -25 18 -36 -6 -4 -16 1 -23 11 -7 9
-18 14 -24 10 -9 -6 -42 45 -42 66 0 19 30 6 36 -16z m325 -26 c10 -6 19 -17
19 -25 0 -19 -31 -19 -56 0 -16 13 -17 16 -4 25 19 12 17 12 41 0z m-361 -10
c13 -8 8 -24 -8 -26 -4 0 -15 -4 -25 -9 -27 -11 -42 8 -22 29 19 18 33 20 55
6z m505 -10 c4 -6 4 -17 1 -25 -4 -12 -10 -13 -31 -3 -14 6 -25 17 -25 25 0
15 46 18 55 3z m505 -19 c0 -6 -4 -13 -10 -16 -5 -3 -10 1 -10 9 0 9 5 16 10
16 6 0 10 -4 10 -9z m-955 -11 c4 -6 1 -18 -6 -26 -12 -14 -14 -14 -26 2 -7 9
-10 21 -7 25 7 12 31 11 39 -1z m811 -5 c7 -18 -13 -45 -33 -45 -19 0 -28 27
-13 45 16 19 39 19 46 0z m-456 -35 c-20 -13 -43 -13 -35 0 3 6 16 10 28 10
18 0 19 -2 7 -10z m-1025 -240 c9 -15 -14 -40 -36 -40 -22 0 -33 16 -25 35 6
17 52 20 61 5z m-1200 -220 c3 -5 1 -10 -4 -10 -6 0 -11 5 -11 10 0 6 2 10 4
10 3 0 8 -4 11 -10z"/>
<path d="M3665 9660 c3 -5 14 -10 23 -10 15 0 15 2 2 10 -20 13 -33 13 -25 0z"/>
<path d="M4218 9383 c21 -8 13 -23 -13 -23 -30 0 -33 -16 -5 -25 15 -5 26 0
39 17 18 21 18 24 3 30 -9 4 -21 7 -27 7 -5 -1 -4 -3 3 -6z"/>
<path d="M4229 9323 c-10 -11 -10 -14 -1 -9 6 4 12 2 12 -3 0 -6 6 -11 14 -11
9 0 12 7 9 20 -6 24 -16 25 -34 3z"/>
<path d="M5055 9930 c-3 -5 -2 -10 4 -10 5 0 13 5 16 10 3 6 2 10 -4 10 -5 0
-13 -4 -16 -10z"/>
<path d="M5425 9732 c-9 -10 -5 -20 10 -26 17 -6 45 2 45 14 0 9 -47 19 -55
12z"/>
<path d="M5675 9660 l-20 -9 20 0 c11 0 27 4 35 9 13 9 13 10 0 9 -8 0 -24 -4
-35 -9z"/>
<path d="M5760 9341 c0 -6 10 -11 23 -11 13 0 29 -6 36 -12 10 -11 11 -10 6 5
-4 9 -13 17 -20 17 -7 0 -20 3 -29 6 -9 3 -16 1 -16 -5z"/>
<path d="M4467 8863 c-4 -3 -7 -11 -7 -17 0 -6 5 -5 12 2 6 6 9 14 7 17 -3 3
-9 2 -12 -2z"/>
<path d="M4536 8783 c-11 -11 -6 -23 9 -23 8 0 15 4 15 9 0 13 -16 22 -24 14z"/>
<path d="M2726 7545 c-9 -26 -7 -32 5 -12 6 10 9 21 6 23 -2 3 -7 -2 -11 -11z"/>
<path d="M2730 7500 c0 -8 5 -22 10 -30 9 -13 10 -13 10 0 0 8 -5 22 -10 30
-9 13 -10 13 -10 0z"/>
<path d="M2701 7464 c0 -11 3 -14 6 -6 3 7 2 16 -1 19 -3 4 -6 -2 -5 -13z"/>
<path d="M801 6894 c0 -11 3 -14 6 -6 3 7 2 16 -1 19 -3 4 -6 -2 -5 -13z"/>
<path d="M4610 6320 c-8 -5 -10 -10 -5 -10 6 0 17 5 25 10 8 5 11 10 5 10 -5
0 -17 -5 -25 -10z"/>
<path d="M4920 6111 c0 -6 4 -13 10 -16 6 -3 7 1 4 9 -7 18 -14 21 -14 7z"/>
<path d="M4923 6064 c0 -7 6 -10 14 -7 7 3 13 8 13 12 0 4 -6 8 -13 8 -8 0
-14 -6 -14 -13z"/>
<path d="M2927 2409 c-11 -7 -40 -9 -70 -5 -37 4 -68 1 -107 -13 -53 -17 -54
-18 -31 -31 21 -11 23 -10 18 4 -5 13 -3 14 13 4 14 -9 25 -9 47 2 15 7 59 16
97 19 42 4 71 11 74 19 5 15 -16 15 -41 1z"/>
<path d="M3100 2370 c-12 -8 -10 -10 8 -10 13 0 20 4 17 10 -7 12 -6 12 -25 0z"/>
<path d="M2712 2221 c-9 -6 -8 -12 6 -24 17 -15 21 -16 31 -3 10 12 9 17 -6
25 -11 5 -25 6 -31 2z"/>
<path d="M2530 2163 c14 -18 31 -32 38 -32 19 -1 15 4 -25 35 l-38 29 25 -32z"/>
<path d="M3001 2164 c0 -11 3 -14 6 -6 3 7 2 16 -1 19 -3 4 -6 -2 -5 -13z"/>
<path d="M2501 2154 c0 -11 3 -14 6 -6 3 7 2 16 -1 19 -3 4 -6 -2 -5 -13z"/>
<path d="M2725 2109 c-28 -17 -30 -18 -37 -1 -5 13 -7 14 -7 2 -1 -14 42 -60
46 -50 1 3 14 -6 29 -20 24 -22 26 -22 19 -5 -8 21 -9 33 -5 50 4 19 0 45 -7
44 -5 0 -21 -9 -38 -20z"/>
<path d="M2867 2113 c-4 -3 -7 -19 -7 -35 0 -16 -5 -38 -11 -49 -8 -16 -7 -25
5 -38 9 -10 16 -23 16 -29 0 -17 18 -15 40 6 13 12 22 36 24 67 3 26 11 52 18
56 9 6 4 9 -14 9 -16 0 -28 5 -28 10 0 11 -33 14 -43 3z"/>
<path d="M2623 2095 c0 -8 4 -12 8 -9 4 2 10 0 14 -6 3 -5 11 -10 16 -10 14 0
2 18 -20 29 -13 7 -18 6 -18 -4z"/>
<path d="M3116 2083 c-3 -3 3 -12 14 -20 15 -11 24 -11 41 -3 11 7 19 13 17
14 -8 7 -66 14 -72 9z"/>
<path d="M3006 2064 c-10 -26 -7 -34 14 -34 13 0 24 -10 30 -25 7 -18 17 -25
35 -25 14 0 25 5 25 10 0 6 -8 10 -17 8 -14 -2 -18 4 -18 27 0 17 -4 36 -8 43
-12 17 -54 15 -61 -4z"/>
<path d="M3160 2020 c0 -6 -3 -9 -7 -7 -5 1 -9 -2 -11 -8 -1 -5 11 -11 28 -13
23 -2 29 0 24 12 -7 17 -34 30 -34 16z"/>
<path d="M2780 2001 c0 -6 5 -13 10 -16 6 -3 10 1 10 9 0 9 -4 16 -10 16 -5 0
-10 -4 -10 -9z"/>
<path d="M2994 1979 c-3 -6 1 -18 10 -27 15 -15 18 -15 26 -2 5 9 5 19 -2 27
-13 16 -25 17 -34 2z"/>
<path d="M1715 5411 c-18 -8 -16 -11 18 -25 22 -10 64 -22 95 -28 32 -7 63
-18 70 -25 7 -7 20 -13 28 -13 23 0 -11 57 -44 74 -35 18 -140 29 -167 17z"/>
<path d="M6700 5370 c-15 -27 -12 -42 14 -73 l23 -29 7 40 c3 22 3 47 0 55 -9
24 -33 28 -44 7z"/>
<path d="M1480 4295 c-11 -29 -6 -45 13 -45 9 0 9 2 0 8 -7 4 -10 17 -6 31 4
17 8 19 14 9 6 -9 9 -9 9 -1 0 25 -20 23 -30 -2z"/>
<path d="M1516 4285 c-9 -26 -7 -32 5 -12 6 10 9 21 6 23 -2 3 -7 -2 -11 -11z"/>
<path d="M1725 4290 c-3 -6 1 -7 9 -4 18 7 21 14 7 14 -6 0 -13 -4 -16 -10z"/>
<path d="M1540 4230 c-34 -7 -34 -7 -5 -8 17 0 39 3 50 8 24 10 4 10 -45 0z"/>
<path d="M4604 2735 c-125 -22 -227 -66 -206 -87 13 -13 63 -7 177 22 50 12
106 26 125 31 19 5 41 18 48 29 12 19 10 20 -30 19 -24 0 -75 -7 -114 -14z"/>
<path d="M4274 2377 c-75 -56 -128 -111 -159 -166 -22 -38 -24 -48 -15 -89 11
-46 59 -182 65 -182 2 0 27 9 57 20 29 11 78 26 109 35 54 15 56 17 78 73 13
31 43 93 66 138 l43 80 -27 12 c-14 6 -53 37 -86 67 -32 30 -62 55 -66 55 -4
0 -33 -20 -65 -43z m4 -169 c3 -63 1 -67 -28 -92 -61 -51 -106 -26 -104 55 3
80 63 143 109 114 16 -10 21 -25 23 -77z"/>
<path d="M6810 2355 c0 -13 42 -45 52 -39 7 4 2 14 -13 25 -24 18 -39 24 -39
14z"/>
<path d="M6567 2233 c-10 -9 -9 -23 2 -23 5 0 11 7 15 15 5 15 -5 20 -17 8z"/>
<path d="M6885 2120 c-3 -5 -2 -10 4 -10 5 0 13 5 16 10 3 6 2 10 -4 10 -5 0
-13 -4 -16 -10z"/>
<path d="M6357 2113 c-28 -7 -14 -28 21 -31 35 -4 76 14 67 29 -6 9 -55 11
-88 2z"/>
<path d="M6670 2100 c0 -5 5 -10 10 -10 6 0 10 5 10 10 0 6 -4 10 -10 10 -5 0
-10 -4 -10 -10z"/>
<path d="M6796 2100 c5 -5 22 -12 38 -16 21 -5 28 -4 24 6 -2 8 -19 15 -37 16
-19 2 -30 -1 -25 -6z"/>
<path d="M6560 2071 c0 -5 7 -12 16 -15 14 -5 15 -4 4 9 -14 17 -20 19 -20 6z"/>
<path d="M6647 2056 c-3 -8 -2 -18 3 -21 13 -8 24 15 12 27 -6 6 -11 4 -15 -6z"/>
<path d="M6448 2039 c-19 -11 -26 -79 -8 -79 21 0 25 4 22 20 -1 9 2 29 7 43
11 29 6 32 -21 16z"/>
<path d="M6362 2031 c2 -7 7 -12 11 -12 12 1 9 15 -3 20 -7 2 -11 -2 -8 -8z"/>
<path d="M6930 2015 c-7 -8 -9 -15 -4 -16 5 0 0 -4 -11 -9 -18 -8 -18 -9 6 -9
14 -1 30 -6 37 -13 9 -9 13 -8 18 5 16 41 -19 74 -46 42z"/>
<path d="M6990 2005 c0 -8 2 -15 4 -15 2 0 6 7 10 15 3 8 1 15 -4 15 -6 0 -10
-7 -10 -15z"/>
<path d="M6020 1991 c-8 -16 -6 -22 6 -29 24 -13 9 -30 -21 -24 -27 5 -35 -12
-10 -22 26 -10 75 5 75 23 0 9 5 22 12 29 8 8 8 15 -2 27 -17 21 -47 19 -60
-4z"/>
<path d="M7078 1973 c-10 -2 -18 -8 -18 -13 0 -18 16 -18 39 1 22 18 16 22
-21 12z"/>
<path d="M5882 1958 c-17 -17 -15 -28 7 -28 10 0 21 9 24 20 6 22 -12 27 -31
8z"/>
<path d="M6085 1930 c3 -5 8 -10 11 -10 2 0 4 5 4 10 0 6 -5 10 -11 10 -5 0
-7 -4 -4 -10z"/>
<path d="M5685 1891 c-6 -11 9 -23 19 -14 9 9 7 23 -3 23 -6 0 -12 -4 -16 -9z"/>
<path d="M6620 1890 c0 -5 5 -10 10 -10 6 0 10 5 10 10 0 6 -4 10 -10 10 -5 0
-10 -4 -10 -10z"/>
<path d="M6675 1890 c-3 -5 -1 -10 4 -10 6 0 11 5 11 10 0 6 -2 10 -4 10 -3 0
-8 -4 -11 -10z"/>
<path d="M6700 1870 c-12 -8 -12 -10 2 -15 20 -8 41 2 33 16 -8 11 -16 11 -35
-1z"/>
<path d="M6220 1806 c0 -2 7 -6 15 -10 8 -3 15 -1 15 4 0 6 -7 10 -15 10 -8 0
-15 -2 -15 -4z"/>
<path d="M6185 1790 c-3 -5 1 -10 9 -10 9 0 16 5 16 10 0 6 -4 10 -9 10 -6 0
-13 -4 -16 -10z"/>
<path d="M2661 3546 c-9 -11 -9 -16 1 -22 7 -4 10 -4 6 1 -4 4 -3 14 3 22 6 7
9 13 6 13 -2 0 -10 -6 -16 -14z"/>
<path d="M1830 2480 c-6 -11 -16 -19 -22 -17 -6 1 -15 -13 -18 -31 -4 -18 -14
-41 -22 -50 -19 -22 -31 -42 -24 -42 6 0 76 102 95 138 6 12 9 22 7 22 -3 0
-10 -9 -16 -20z"/>
<path d="M5870 9164 c0 -8 5 -12 10 -9 6 3 10 10 10 16 0 5 -4 9 -10 9 -5 0
-10 -7 -10 -16z"/>
<path d="M5880 9030 c0 -5 5 -10 11 -10 5 0 7 5 4 10 -3 6 -8 10 -11 10 -2 0
-4 -4 -4 -10z"/>
<path d="M5660 8584 c0 -8 5 -12 10 -9 6 3 10 10 10 16 0 5 -4 9 -10 9 -5 0
-10 -7 -10 -16z"/>
<path d="M5655 8500 c-4 -6 20 -10 67 -9 52 1 66 3 48 9 -36 12 -108 12 -115
0z"/>
<path d="M7670 8279 c0 -5 -10 -9 -22 -7 -18 2 -23 -2 -23 -22 -1 -14 -6 -24
-12 -23 -6 1 -17 -4 -23 -12 -7 -8 -9 -15 -5 -15 4 0 -4 -9 -19 -21 -14 -11
-24 -24 -21 -29 3 -4 -1 -13 -9 -19 -7 -6 -16 -25 -20 -41 -3 -17 -6 -33 -7
-38 -1 -4 -9 -12 -18 -19 -9 -6 -14 -13 -11 -16 3 -2 49 -7 103 -11 l97 -6 0
145 c0 80 -2 145 -5 145 -3 0 -5 -5 -5 -11z"/>
<path d="M6080 8136 c0 -3 9 -10 20 -16 11 -6 20 -8 20 -6 0 3 -9 10 -20 16
-11 6 -20 8 -20 6z"/>
<path d="M6380 8036 c0 -3 9 -10 20 -16 11 -6 20 -8 20 -6 0 3 -9 10 -20 16
-11 6 -20 8 -20 6z"/>
<path d="M6364 7969 c-3 -6 6 -24 21 -39 27 -28 238 -180 250 -180 10 0 0 34
-15 52 -40 50 -101 104 -154 139 -60 40 -89 48 -102 28z"/>
<path d="M6570 7663 c0 -5 52 -63 116 -128 81 -85 113 -113 109 -95 -3 14 -8
36 -11 49 -3 13 -15 38 -27 55 -12 17 -22 36 -22 43 0 7 -4 12 -8 12 -5 -1
-23 12 -40 28 -17 15 -25 20 -18 11 7 -9 11 -25 9 -34 -3 -15 -8 -13 -38 12
-57 48 -70 57 -70 47z"/>
<path d="M6860 4460 c0 -21 17 -46 25 -38 4 4 0 17 -9 30 -10 14 -16 17 -16 8z"/>
<path d="M0 4035 l0 -87 33 7 c17 3 42 11 53 17 21 10 21 11 5 39 -11 19 -25
29 -45 31 -16 2 -31 10 -33 18 -4 13 -3 13 6 0 7 -9 11 -10 11 -3 0 6 -4 14
-10 18 -5 3 -7 12 -4 19 3 8 1 17 -5 21 -8 4 -11 -21 -11 -80z"/>
<path d="M7620 2706 c0 -2 7 -9 15 -16 12 -10 15 -10 15 4 0 9 -7 16 -15 16
-8 0 -15 -2 -15 -4z"/>
<path d="M7671 2664 c0 -11 3 -14 6 -6 3 7 2 16 -1 19 -3 4 -6 -2 -5 -13z"/>
<path d="M7618 2663 c-16 -2 -29 -11 -29 -19 -2 -18 -4 -24 -14 -47 -6 -15
-10 -16 -16 -5 -7 10 -11 10 -21 0 -10 -10 -10 -17 1 -35 8 -12 16 -34 17 -50
4 -34 21 -67 35 -67 6 0 8 -9 4 -20 -3 -11 -2 -20 4 -20 15 0 41 30 41 48 0
10 9 23 20 30 17 10 20 23 20 82 0 64 -2 70 -21 70 -16 0 -19 4 -14 20 3 11 5
19 3 19 -2 -1 -15 -4 -30 -6z m7 -78 c0 -22 -5 -40 -12 -42 -9 -3 -13 9 -13
42 0 33 4 45 13 43 7 -3 12 -21 12 -43z"/>
<path d="M7645 2370 c-10 -12 -24 -19 -31 -16 -7 3 -18 -2 -24 -9 -10 -12 -14
-12 -27 0 -20 21 -30 19 -49 -10 -9 -14 -24 -25 -33 -23 -23 4 -41 -10 -35
-27 4 -8 10 -12 15 -9 5 3 7 -1 4 -8 -7 -18 15 -48 22 -30 2 6 15 12 28 12 17
0 26 -8 34 -32 10 -29 12 -30 29 -15 10 10 26 17 34 17 23 0 17 -66 -10 -110
-12 -19 -22 -43 -22 -52 0 -9 -3 -23 -6 -32 -4 -10 -1 -16 9 -16 8 0 17 7 21
15 3 8 14 15 23 15 24 0 46 53 29 70 -8 8 -7 14 5 20 13 8 16 31 18 135 1 69
-2 125 -7 125 -5 0 -17 -9 -27 -20z"/>
<path d="M7501 2178 c-5 -14 -5 -26 2 -29 5 -4 7 -11 3 -17 -8 -13 6 -23 21
-14 6 4 14 17 18 30 5 19 3 25 -14 29 -11 3 -18 9 -15 14 3 5 3 9 -1 9 -3 0
-9 -10 -14 -22z"/>
<path d="M7666 2035 c4 -8 8 -15 10 -15 2 0 4 7 4 15 0 8 -4 15 -10 15 -5 0
-7 -7 -4 -15z"/>
<path d="M7588 1979 c19 -18 42 -14 42 7 0 8 -10 12 -29 11 -27 -2 -28 -3 -13
-18z"/>
<path d="M7657 1980 c-16 -23 -16 -26 0 -37 9 -7 19 -10 22 -7 3 3 -1 9 -8 13
-10 7 -10 10 -1 13 7 2 11 13 8 23 -3 19 -5 18 -21 -5z"/>
<path d="M7660 1900 c0 -5 5 -10 10 -10 6 0 10 5 10 10 0 6 -4 10 -10 10 -5 0
-10 -4 -10 -10z"/>
<path d="M7603 1523 c-44 -8 -17 -40 41 -50 35 -5 36 -5 36 26 0 28 -3 31 -27
30 -16 -1 -38 -4 -50 -6z"/>
</g>
</svg>
